<svg width="17" height="20" viewBox="0 0 17 20" fill="none" xmlns="http://www.w3.org/2000/svg">
<path d="M8.41978 1.52311C8.88382 1.04253 9.43972 0.660099 10.0544 0.398537C10.6692 0.136975 11.3302 0.00161461 11.9982 0.000495281C12.6663 -0.000624053 13.3278 0.13252 13.9434 0.392021C14.559 0.651521 15.1161 1.03209 15.5818 1.51111C16.4879 2.44358 16.9947 3.69262 16.9945 4.99282C16.9943 6.29302 16.4871 7.5419 15.5808 8.47411L10.1448 14.0921C9.86522 14.3796 9.53084 14.6081 9.16142 14.7641C8.79201 14.9201 8.39507 15.0004 7.99407 15.0003C7.59307 15.0002 7.19616 14.9197 6.82682 14.7635C6.45748 14.6074 6.12321 14.3787 5.84378 14.0911C5.30057 13.5322 4.99585 12.784 4.99398 12.0046C4.99212 11.2252 5.29325 10.4756 5.83378 9.91411L9.27478 6.30011C9.36605 6.2055 9.47506 6.12978 9.59559 6.07729C9.71612 6.02481 9.84581 5.99657 9.97725 5.9942C10.1087 5.99184 10.2393 6.01538 10.3617 6.06349C10.484 6.11161 10.5957 6.18334 10.6903 6.27461C10.7849 6.36588 10.8606 6.47489 10.9131 6.59542C10.9656 6.71595 10.9938 6.84564 10.9962 6.97708C10.9986 7.10852 10.975 7.23914 10.9269 7.36149C10.8788 7.48383 10.807 7.5955 10.7158 7.69011L7.27578 11.3021C7.09976 11.494 7.00553 11.747 7.01312 12.0072C7.02071 12.2675 7.12952 12.5146 7.31642 12.6959C7.50332 12.8772 7.75357 12.9784 8.01396 12.9781C8.27435 12.9778 8.52434 12.8759 8.71078 12.6941L14.1468 7.07611C14.6896 6.5178 14.9933 5.76981 14.9933 4.99111C14.9933 4.21242 14.6896 3.46442 14.1468 2.90611C13.8679 2.61931 13.5341 2.39148 13.1655 2.23616C12.7968 2.08083 12.4006 2.00118 12.0006 2.00193C11.6005 2.00267 11.2047 2.0838 10.8366 2.2405C10.4685 2.3972 10.1356 2.62627 9.85778 2.91411L3.38978 9.61311C2.50561 10.5287 2.00814 11.7498 2.00069 13.0226C1.99325 14.2954 2.47639 15.5222 3.34978 16.4481C3.81489 16.9412 4.37648 17.3332 4.99962 17.5999C5.62276 17.8666 6.29412 18.0021 6.97191 17.9982C7.6497 17.9943 8.31943 17.8509 8.93943 17.577C9.55943 17.3031 10.1164 16.9045 10.5758 16.4061L15.2638 11.3231C15.353 11.2266 15.4604 11.1486 15.5798 11.0936C15.6991 11.0385 15.8282 11.0076 15.9595 11.0024C16.0909 10.9973 16.222 11.018 16.3453 11.0635C16.4686 11.109 16.5818 11.1784 16.6783 11.2676C16.7748 11.3568 16.8528 11.4642 16.9078 11.5836C16.9629 11.703 16.9938 11.832 16.999 11.9634C17.0041 12.0947 16.9834 12.2258 16.9379 12.3491C16.8924 12.4724 16.823 12.5856 16.7338 12.6821L12.0468 17.7641C11.4015 18.4641 10.6191 19.0238 9.74819 19.4084C8.87732 19.7931 7.93662 19.9944 6.9846 20C6.03259 20.0055 5.08961 19.8151 4.21433 19.4406C3.33905 19.0661 2.55017 18.5155 1.89678 17.8231C0.66932 16.5227 -0.00994621 14.7995 0.000110086 13.0113C0.0101664 11.2231 0.708773 9.50759 1.95078 8.22111L8.41878 1.52311H8.41978Z" fill="#026FEB"/>
</svg>
