<svg width="22" height="22" viewBox="0 0 22 22" fill="none" xmlns="http://www.w3.org/2000/svg">
<g id="admin_panel_settings">
<mask id="mask0_1092_3240" style="mask-type:alpha" maskUnits="userSpaceOnUse" x="0" y="0" width="22" height="22">
<rect id="Bounding box" width="22" height="22" fill="#D9D9D9"/>
</mask>
<g mask="url(#mask0_1092_3240)">
<g id="admin_panel_settings_2">
<path d="M13.45 13.75C13.7208 13.75 13.951 13.6552 14.1406 13.4656C14.3302 13.276 14.425 13.0458 14.425 12.775C14.425 12.5042 14.3302 12.274 14.1406 12.0844C13.951 11.8948 13.7208 11.8 13.45 11.8C13.1792 11.8 12.949 11.8948 12.7594 12.0844C12.5698 12.274 12.475 12.5042 12.475 12.775C12.475 13.0458 12.5698 13.276 12.7594 13.4656C12.949 13.6552 13.1792 13.75 13.45 13.75ZM13.45 15.7C13.7858 15.7 14.0946 15.6215 14.3762 15.4644C14.6579 15.3073 14.8854 15.0988 15.0588 14.8387C14.8204 14.6979 14.5658 14.5896 14.295 14.5138C14.0242 14.4379 13.7425 14.4 13.45 14.4C13.1575 14.4 12.8758 14.4379 12.605 14.5138C12.3342 14.5896 12.0796 14.6979 11.8412 14.8387C12.0146 15.0988 12.2421 15.3073 12.5237 15.4644C12.8054 15.6215 13.1142 15.7 13.45 15.7ZM10.2 17C8.69417 16.6208 7.45104 15.7569 6.47062 14.4081C5.49021 13.0594 5 11.5617 5 9.915V5.95L10.2 4L15.4 5.95V9.63875C15.1942 9.55208 14.9829 9.47354 14.7662 9.40312C14.5496 9.33271 14.3275 9.28125 14.1 9.24875V6.86L10.2 5.3975L6.3 6.86V9.915C6.3 10.4242 6.36771 10.9333 6.50312 11.4425C6.63854 11.9517 6.82812 12.4365 7.07187 12.8969C7.31562 13.3573 7.61083 13.7825 7.9575 14.1725C8.30417 14.5625 8.68875 14.8875 9.11125 15.1475C9.23042 15.4942 9.3875 15.8246 9.5825 16.1388C9.7775 16.4529 9.99958 16.7346 10.2487 16.9837C10.2379 16.9837 10.2298 16.9865 10.2244 16.9919C10.219 16.9973 10.2108 17 10.2 17ZM13.45 17C12.5508 17 11.7844 16.6831 11.1506 16.0494C10.5169 15.4156 10.2 14.6492 10.2 13.75C10.2 12.8508 10.5169 12.0844 11.1506 11.4506C11.7844 10.8169 12.5508 10.5 13.45 10.5C14.3492 10.5 15.1156 10.8169 15.7494 11.4506C16.3831 12.0844 16.7 12.8508 16.7 13.75C16.7 14.6492 16.3831 15.4156 15.7494 16.0494C15.1156 16.6831 14.3492 17 13.45 17Z" fill="#757575"/>
<path d="M13.45 13.75C13.7208 13.75 13.951 13.6552 14.1406 13.4656C14.3302 13.276 14.425 13.0458 14.425 12.775C14.425 12.5042 14.3302 12.274 14.1406 12.0844C13.951 11.8948 13.7208 11.8 13.45 11.8C13.1792 11.8 12.949 11.8948 12.7594 12.0844C12.5698 12.274 12.475 12.5042 12.475 12.775C12.475 13.0458 12.5698 13.276 12.7594 13.4656C12.949 13.6552 13.1792 13.75 13.45 13.75ZM13.45 15.7C13.7858 15.7 14.0946 15.6215 14.3762 15.4644C14.6579 15.3073 14.8854 15.0988 15.0588 14.8387C14.8204 14.6979 14.5658 14.5896 14.295 14.5138C14.0242 14.4379 13.7425 14.4 13.45 14.4C13.1575 14.4 12.8758 14.4379 12.605 14.5138C12.3342 14.5896 12.0796 14.6979 11.8412 14.8387C12.0146 15.0988 12.2421 15.3073 12.5237 15.4644C12.8054 15.6215 13.1142 15.7 13.45 15.7ZM10.2 17C8.69417 16.6208 7.45104 15.7569 6.47062 14.4081C5.49021 13.0594 5 11.5617 5 9.915V5.95L10.2 4L15.4 5.95V9.63875C15.1942 9.55208 14.9829 9.47354 14.7662 9.40312C14.5496 9.33271 14.3275 9.28125 14.1 9.24875V6.86L10.2 5.3975L6.3 6.86V9.915C6.3 10.4242 6.36771 10.9333 6.50312 11.4425C6.63854 11.9517 6.82812 12.4365 7.07187 12.8969C7.31562 13.3573 7.61083 13.7825 7.9575 14.1725C8.30417 14.5625 8.68875 14.8875 9.11125 15.1475C9.23042 15.4942 9.3875 15.8246 9.5825 16.1388C9.7775 16.4529 9.99958 16.7346 10.2487 16.9837C10.2379 16.9837 10.2298 16.9865 10.2244 16.9919C10.219 16.9973 10.2108 17 10.2 17ZM13.45 17C12.5508 17 11.7844 16.6831 11.1506 16.0494C10.5169 15.4156 10.2 14.6492 10.2 13.75C10.2 12.8508 10.5169 12.0844 11.1506 11.4506C11.7844 10.8169 12.5508 10.5 13.45 10.5C14.3492 10.5 15.1156 10.8169 15.7494 11.4506C16.3831 12.0844 16.7 12.8508 16.7 13.75C16.7 14.6492 16.3831 15.4156 15.7494 16.0494C15.1156 16.6831 14.3492 17 13.45 17Z" fill="black" fill-opacity="0.2"/>
</g>
</g>
</g>
</svg>
