<svg width="360" height="800" viewBox="0 0 360 800" fill="none" xmlns="http://www.w3.org/2000/svg">
<g clip-path="url(#clip0_5372_38179)">
<rect width="360" height="800" fill="#E6E7EB"/>
<path d="M-169.05 799.981L-158.072 764.879L-147.76 731.907L-138.057 700.896L-128.925 671.653L-120.306 644.047L-112.144 617.944L-104.42 593.23L-97.0947 569.79L-90.1313 547.53L-83.5104 526.355L-77.213 506.187L-71.2008 486.972L-65.4741 468.631L-59.9947 451.108L-54.7626 434.347L-49.74 418.308L-44.9455 402.935L-40.3413 388.191L-35.9274 374.055L-31.6846 360.47L-27.5941 347.4L-23.6748 334.824L-19.8888 322.723L-16.2358 311.061L-12.7161 299.817L-9.32946 288.972L-6.0571 278.508L-2.8989 268.386L0.16431 258.607L3.11326 249.151L5.9671 240" stroke="white" stroke-miterlimit="10"/>
<path d="M-69.3743 799.981L-61.5357 764.879L-54.1728 731.907L-47.2476 700.896L-40.7217 671.653L-34.5574 644.047L-28.7356 617.944L-23.2182 593.23L-17.9862 569.79L-13.0204 547.53L-8.30208 526.355L-3.79301 506.187L0.506794 486.972L4.59723 468.631L8.51651 451.108L12.2646 434.347L15.8414 418.308L19.266 402.935L22.5574 388.191L25.7157 374.055L28.7407 360.47L31.6517 347.4L34.4484 334.824L37.1502 322.723L39.7567 311.061L42.2681 299.817L44.6842 288.972L47.0245 278.508L49.2885 268.386L51.4764 258.607L53.5882 249.151L55.624 240" stroke="white" stroke-miterlimit="10"/>
<path d="M30.2628 799.981L34.9621 764.879L39.376 731.907L43.5236 700.896L47.4429 671.653L51.1339 644.047L54.6346 617.944L57.9451 593.23L61.0842 569.79L64.0713 547.53L66.9061 526.355L69.6078 506.187L72.1762 486.972L74.6305 468.631L76.9707 451.108L79.2157 434.347L81.3656 418.308L83.4204 402.935L85.399 388.191L87.3016 374.055L89.1281 360.47L90.8784 347.4L92.5717 334.824L94.1888 322.723L95.749 311.061L97.2519 299.817L98.6979 288.972L100.106 278.508L101.457 268.386L102.769 258.607L104.044 249.151L105.262 240" stroke="white" stroke-miterlimit="10"/>
<path d="M129.938 799.981L131.498 764.879L132.963 731.907L134.352 700.896L135.665 671.653L136.901 644.047L138.062 617.944L139.165 593.23L140.212 569.79L141.201 547.53L142.152 526.355L143.047 506.187L143.903 486.972L144.721 468.631L145.501 451.108L146.243 434.347L146.966 418.308L147.651 402.935L148.317 388.191L148.945 374.055L149.553 360.47L150.143 347.4L150.714 334.824L151.247 322.723L151.76 311.061L152.255 299.817L152.731 288.972L153.206 278.508L153.663 268.386L154.1 258.607L154.519 249.151L154.919 240" stroke="white" stroke-miterlimit="10"/>
<path d="M229.575 799.981L228.015 764.879L226.55 731.907L225.161 700.896L223.849 671.653L222.612 644.047L221.451 617.944L220.348 593.23L219.301 569.79L218.312 547.53L217.361 526.355L216.467 506.187L215.61 486.972L214.792 468.631L214.012 451.108L213.27 434.347L212.547 418.308L211.862 402.935L211.196 388.191L210.569 374.055L209.96 360.47L209.37 347.4L208.818 334.824L208.285 322.723L207.772 311.061L207.277 299.817L206.802 288.972L206.326 278.508L205.869 268.386L205.432 258.607L205.013 249.151L204.614 240" stroke="white" stroke-miterlimit="10"/>
<path d="M329.25 799.981L324.551 764.879L320.137 731.907L315.989 700.896L312.07 671.653L308.379 644.047L304.878 617.944L301.568 593.23L298.429 569.79L295.442 547.53L292.607 526.355L289.905 506.187L287.337 486.972L284.883 468.631L282.542 451.108L280.297 434.347L278.148 418.308L276.093 402.935L274.114 388.191L272.212 374.055L270.385 360.47L268.635 347.4L266.96 334.824L265.343 322.723L263.783 311.061L262.28 299.817L260.834 288.972L259.426 278.508L258.076 268.386L256.763 258.607L255.488 249.151L254.27 240" stroke="white" stroke-miterlimit="10"/>
<path d="M428.907 799.981L421.068 764.879L413.705 731.907L406.78 700.896L400.254 671.653L394.09 644.047L388.268 617.944L382.75 593.23L377.518 569.79L372.553 547.53L367.834 526.355L363.325 506.187L359.025 486.972L354.935 468.631L351.016 451.108L347.268 434.347L343.691 418.308L340.266 402.935L336.975 388.191L333.817 374.055L330.791 360.47L327.881 347.4L325.084 334.824L322.382 322.723L319.776 311.061L317.264 299.817L314.848 288.972L312.508 278.508L310.244 268.386L308.056 258.607L305.944 249.151L303.908 240" stroke="white" stroke-miterlimit="10"/>
<path d="M528.582 799.981L517.604 764.879L507.292 731.907L497.589 700.896L488.457 671.653L479.838 644.047L471.676 617.944L463.952 593.23L456.627 569.79L449.663 547.53L443.042 526.355L436.745 506.187L430.733 486.972L425.006 468.631L419.527 451.108L414.295 434.347L409.272 418.308L404.478 402.935L399.873 388.191L395.459 374.055L391.217 360.47L387.126 347.4L383.207 334.824L379.421 322.723L375.768 311.061L372.248 299.817L368.862 288.972L365.589 278.508L362.431 268.386L359.368 258.607L356.419 249.151L353.565 240" stroke="white" stroke-miterlimit="10"/>
<path d="M949.391 240.095H-589.858H949.391Z" stroke="white" stroke-miterlimit="10"/>
<path d="M962.043 249.246H911.587H861.112H810.637H760.162H709.706H659.231H608.756H558.281H507.825H457.35H406.875H356.4H305.944H255.469H204.994H154.519H104.063H53.6073H3.13241H-47.3426H-97.8175H-148.274H-198.748H-249.223H-299.698H-350.154H-400.629H-451.104H-501.579H-552.035H-602.51H-552.035H-501.579H-451.104H-400.629H-350.154H-299.698H-249.223H-198.748H-148.274H-97.8175H-47.3426H3.13241H53.6073H104.063H154.519H204.994H255.469H305.944H356.4H406.875H457.35H507.825H558.281H608.756H659.231H709.706H760.162H810.637H861.112H911.587H962.043Z" stroke="white" stroke-miterlimit="10"/>
<path d="M975.132 258.701H923.82H872.508H821.196H769.884H718.572H667.241H615.929H564.616H513.304H461.992H410.68H359.368H308.056H256.725H205.413H154.101H102.789H51.4955H0.183436H-51.1478H-102.46H-153.772H-205.084H-256.396H-307.708H-359.02H-410.351H-461.664H-512.976H-564.288H-615.6H-564.288H-512.976H-461.664H-410.351H-359.02H-307.708H-256.396H-205.084H-153.772H-102.46H-51.1478H0.183436H51.4955H102.789H154.101H205.413H256.725H308.056H359.368H410.68H461.992H513.304H564.616H615.929H667.241H718.572H769.884H821.196H872.508H923.82H975.132Z" stroke="white" stroke-miterlimit="10"/>
<path d="M988.659 268.462H936.472H884.285H832.097H779.91H727.723H675.536H623.348H571.161H518.974H466.787H414.599H362.412H310.225H258.038H205.85H153.663H101.476H49.3074H-2.87983H-55.0671H-107.254H-159.442H-211.629H-263.816H-316.003H-368.191H-420.378H-472.565H-524.753H-576.94H-629.127H-576.94H-524.753H-472.565H-420.378H-368.191H-316.003H-263.816H-211.629H-159.442H-107.254H-55.0671H-2.87983H49.3074H101.476H153.663H205.85H258.038H310.225H362.412H414.599H466.787H518.974H571.161H623.348H675.536H727.723H779.91H832.097H884.285H936.472H988.659Z" stroke="white" stroke-miterlimit="10"/>
<path d="M1002.66 278.583H949.581H896.48H843.399H790.298H737.217H684.116H631.035H577.934H524.853H471.752H418.671H365.57H312.489H259.388H206.307H153.206H100.125H47.0434H-6.03797H-59.1385H-112.22H-165.321H-218.402H-271.502H-324.584H-377.684H-430.766H-483.866H-536.948H-590.048H-643.13H-590.048H-536.948H-483.866H-430.766H-377.684H-324.584H-271.502H-218.402H-165.321H-112.22H-59.1385H-6.03797H47.0434H100.125H153.206H206.307H259.388H312.489H365.57H418.671H471.752H524.853H577.934H631.035H684.116H737.217H790.298H843.399H896.48H949.581H1002.66Z" stroke="white" stroke-miterlimit="10"/>
<path d="M1017.16 289.048H963.127H909.113H855.081H801.067H747.034H693.001H638.988H584.955H530.922H476.908H422.876H368.843H314.829H260.796H206.783H152.75H98.717H44.7033H-9.31049H-63.3432H-117.376H-171.39H-225.422H-279.436H-333.469H-387.502H-441.515H-495.548H-549.581H-603.595H-657.627H-603.595H-549.581H-495.548H-441.515H-387.502H-333.469H-279.436H-225.422H-171.39H-117.376H-63.3432H-9.31049H44.7033H98.717H152.75H206.783H260.796H314.829H368.843H422.876H476.908H530.922H584.955H638.988H693.001H747.034H801.067H855.081H909.113H963.127H1017.16Z" stroke="white" stroke-miterlimit="10"/>
<path d="M1032.17 299.893H977.187H922.184H867.2H812.197H757.193H702.209H647.207H592.222H537.219H482.235H427.232H372.248H317.245H262.261H207.258H152.255H97.271H42.2869H-12.6971H-67.7002H-122.703H-177.687H-232.69H-287.674H-342.677H-397.661H-452.664H-507.648H-562.652H-617.636H-672.639H-617.636H-562.652H-507.648H-452.664H-397.661H-342.677H-287.674H-232.69H-177.687H-122.703H-67.7002H-12.6971H42.2869H97.271H152.255H207.258H262.261H317.245H372.248H427.232H482.235H537.219H592.222H647.207H702.209H757.193H812.197H867.2H922.184H977.187H1032.17Z" stroke="white" stroke-miterlimit="10"/>
<path d="M1047.73 311.136H991.741H935.73H879.737H823.745H767.734H711.741H655.749H599.756H543.745H487.753H431.76H375.749H319.757H263.764H207.753H151.76H95.7679H39.7756H-16.2169H-72.2093H-128.221H-184.213H-240.205H-296.217H-352.209H-408.202H-464.213H-520.205H-576.198H-632.209H-688.202H-632.209H-576.198H-520.205H-464.213H-408.202H-352.209H-296.217H-240.205H-184.213H-128.221H-72.2093H-16.2169H39.7756H95.7679H151.76H207.753H263.764H319.757H375.749H431.76H487.753H543.745H599.756H655.749H711.741H767.734H823.745H879.737H935.73H991.741H1047.73Z" stroke="white" stroke-miterlimit="10"/>
<path d="M1063.87 322.799H1006.83H949.79H892.751H835.712H778.673H721.635H664.596H607.557H550.518H493.479H436.441H379.402H322.363H265.324H208.285H151.247H94.2079H37.1691H-19.8697H-76.9085H-133.947H-190.986H-248.025H-305.064H-362.103H-419.141H-476.18H-533.219H-590.258H-647.297H-704.335H-647.297H-590.258H-533.219H-476.18H-419.141H-362.103H-305.064H-248.025H-190.986H-133.947H-76.9085H-19.8697H37.1691H94.2079H151.247H208.285H265.324H322.363H379.402H436.441H493.479H550.518H607.557H664.596H721.635H778.673H835.712H892.751H949.79H1006.83H1063.87Z" stroke="white" stroke-miterlimit="10"/>
<path d="M1080.63 334.9H1022.51H964.383H906.259H848.136H790.032H731.908H673.785H615.662H557.539H499.415H441.311H383.188H325.065H266.941H208.818H150.695H92.5716H34.4673H-23.6369H-81.7601H-139.883H-198.007H-256.13H-314.253H-372.376H-430.481H-488.604H-546.727H-604.85H-662.974H-721.097H-662.974H-604.85H-546.727H-488.604H-430.481H-372.376H-314.253H-256.13H-198.007H-139.883H-81.7601H-23.6369H34.4673H92.5716H150.695H208.818H266.941H325.065H383.188H441.311H499.415H557.539H615.662H673.785H731.908H790.032H848.136H906.259H964.383H1022.51H1080.63Z" stroke="white" stroke-miterlimit="10"/>
<path d="M1098.02 347.457H1038.77H979.546H920.3H861.054H801.809H742.563H683.317H624.09H564.845H505.599H446.353H387.107H327.861H268.616H209.389H150.143H90.8975H31.6707H-27.5751H-86.8209H-146.067H-205.293H-264.539H-323.785H-383.031H-442.276H-501.522H-560.768H-619.995H-679.241H-738.486H-679.241H-619.995H-560.768H-501.522H-442.276H-383.031H-323.785H-264.539H-205.293H-146.067H-86.8209H-27.5751H31.6707H90.8975H150.143H209.389H268.616H327.861H387.107H446.353H505.599H564.845H624.09H683.317H742.563H801.809H861.054H920.3H979.546H1038.77H1098.02Z" stroke="white" stroke-miterlimit="10"/>
<path d="M1116.11 360.526H1055.71H995.28H934.874H874.467H814.061H753.655H693.248H632.823H572.417H512.01H451.604H391.198H330.791H270.366H209.96H149.553H89.147H28.7597H-31.6657H-92.072H-152.478H-212.885H-273.291H-333.697H-394.123H-454.529H-514.935H-575.342H-635.748H-696.154H-756.58H-696.154H-635.748H-575.342H-514.935H-454.529H-394.123H-333.697H-273.291H-212.885H-152.478H-92.072H-31.6657H28.7597H89.147H149.553H209.96H270.366H330.791H391.198H451.604H512.01H572.417H632.823H693.248H753.655H814.061H874.467H934.874H995.28H1055.71H1116.11Z" stroke="white" stroke-miterlimit="10"/>
<path d="M1134.91 374.111H1073.29H1011.68H950.056H888.432H826.808H765.185H703.561H641.936H580.312H518.688H457.064H395.441H333.817H272.193H210.569H148.945H87.3207H25.7157H-35.9083H-97.5323H-159.156H-220.78H-282.404H-344.028H-405.652H-467.257H-528.881H-590.505H-652.129H-713.753H-775.377H-713.753H-652.129H-590.505H-528.881H-467.257H-405.652H-344.028H-282.404H-220.78H-159.156H-97.5323H-35.9083H25.7157H87.3207H148.945H210.569H272.193H333.817H395.441H457.064H518.688H580.312H641.936H703.561H765.185H826.808H888.432H950.056H1011.68H1073.29H1134.91Z" stroke="white" stroke-miterlimit="10"/>
<path d="M1154.49 388.248H1091.61H1028.73H965.829H902.949H840.069H777.171H714.291H651.411H588.512H525.633H462.753H399.855H336.975H274.095H211.196H148.317H85.4372H22.5574H-40.3222H-103.202H-166.101H-228.98H-291.86H-354.759H-417.638H-480.518H-543.417H-606.296H-669.195H-732.075H-794.954H-732.075H-669.195H-606.296H-543.417H-480.518H-417.638H-354.759H-291.86H-228.98H-166.101H-103.202H-40.3222H22.5574H85.4372H148.317H211.196H274.095H336.975H399.855H462.753H525.633H588.512H651.411H714.291H777.171H840.069H902.949H965.829H1028.73H1091.61H1154.49Z" stroke="white" stroke-miterlimit="10"/>
<path d="M1174.9 402.973H1110.69H1046.5H982.286H918.093H853.882H789.69H725.478H661.285H597.074H532.863H468.67H404.459H340.266H276.055H211.862H147.651H83.4584H19.266H-44.9264H-109.138H-173.33H-237.542H-301.734H-365.946H-430.138H-494.35H-558.542H-622.753H-686.946H-751.157H-815.35H-751.157H-686.946H-622.753H-558.542H-494.35H-430.138H-365.946H-301.734H-237.542H-173.33H-109.138H-44.9264H19.266H83.4584H147.651H211.862H276.055H340.266H404.459H468.67H532.863H597.074H661.285H725.478H789.69H853.882H918.093H982.286H1046.5H1110.69H1174.9Z" stroke="white" stroke-miterlimit="10"/>
<path d="M1196.17 418.346H1130.59H1065.01H999.447H933.865H868.303H802.722H737.14H671.578H605.997H540.416H474.853H409.272H343.691H278.128H212.547H146.966H81.4037H15.8413H-49.74H-115.302H-180.884H-246.465H-312.027H-377.608H-443.19H-508.752H-574.333H-639.915H-705.477H-771.058H-836.64H-771.058H-705.477H-639.915H-574.333H-508.752H-443.19H-377.608H-312.027H-246.465H-180.884H-115.302H-49.74H15.8413H81.4037H146.966H212.547H278.128H343.691H409.272H474.853H540.416H605.997H671.578H737.14H802.722H868.303H933.865H999.447H1065.01H1130.59H1196.17Z" stroke="white" stroke-miterlimit="10"/>
<path d="M1218.37 434.385H1151.37H1084.36H1017.35H950.342H883.334H816.326H749.317H682.309H615.301H548.292H481.284H414.276H347.268H280.279H213.27H146.262H79.2539H12.2647H-54.7436H-121.752H-188.76H-255.768H-322.776H-389.785H-456.793H-523.801H-590.809H-657.818H-724.826H-791.834H-858.842H-791.834H-724.826H-657.818H-590.809H-523.801H-456.793H-389.785H-322.776H-255.768H-188.76H-121.752H-54.7436H12.2647H79.2539H146.262H213.27H280.279H347.268H414.276H481.284H548.292H615.301H682.309H749.317H816.326H883.334H950.342H1017.35H1084.36H1151.37H1218.37Z" stroke="white" stroke-miterlimit="10"/>
<path d="M1241.57 451.146H1173.06H1104.56H1036.05H967.541H899.049H830.538H762.045H693.534H625.023H556.531H488.019H419.527H351.016H282.524H214.012H145.501H77.0088H8.51654H-59.9946H-128.487H-196.998H-265.49H-334.002H-402.494H-471.005H-539.516H-608.009H-676.52H-745.012H-813.523H-882.035H-813.523H-745.012H-676.52H-608.009H-539.516H-471.005H-402.494H-334.002H-265.49H-196.998H-128.487H-59.9946H8.51654H77.0088H145.501H214.012H282.524H351.016H419.527H488.019H556.531H625.023H693.534H762.045H830.538H899.049H967.541H1036.05H1104.56H1173.06H1241.57Z" stroke="white" stroke-miterlimit="10"/>
<path d="M1265.82 468.65H1195.75H1125.68H1055.61H985.539H915.468H845.416H775.344H705.273H635.201H565.13H495.059H425.006H354.935H284.864H214.792H144.721H74.6497H4.59736H-65.4549H-135.526H-205.598H-275.669H-345.74H-415.812H-485.864H-555.935H-626.007H-696.078H-766.149H-836.221H-906.273H-836.221H-766.149H-696.078H-626.007H-555.935H-485.864H-415.812H-345.74H-275.669H-205.598H-135.526H-65.4549H4.59736H74.6497H144.721H214.792H284.864H354.935H425.006H495.059H565.13H635.201H705.273H775.344H845.416H915.468H985.539H1055.61H1125.68H1195.75H1265.82Z" stroke="white" stroke-miterlimit="10"/>
<path d="M1291.2 486.99H1219.5H1147.79H1076.08H1004.37H932.667H860.959H789.271H717.563H645.856H574.148H502.441H430.733H359.026H287.318H215.61H143.903H72.1953H0.506786H-71.2008H-142.908H-214.616H-286.304H-358.012H-429.72H-501.427H-573.135H-644.842H-716.55H-788.257H-859.965H-931.672H-859.965H-788.257H-716.55H-644.842H-573.135H-501.427H-429.72H-358.012H-286.304H-214.616H-142.908H-71.2008H0.506786H72.1953H143.903H215.61H287.318H359.026H430.733H502.441H574.148H645.856H717.563H789.271H860.959H932.667H1004.37H1076.08H1147.79H1219.5H1291.2Z" stroke="white" stroke-miterlimit="10"/>
<path d="M1317.8 506.207H1244.38H1170.96H1097.54H1024.12H950.703H877.264H803.844H730.425H657.005H583.585H510.165H436.745H363.306H289.886H216.466H143.047H69.6268H-3.7741H-77.194H-150.633H-224.053H-297.473H-370.892H-444.312H-517.732H-591.152H-664.591H-738.011H-811.431H-884.851H-958.27H-884.851H-811.431H-738.011H-664.591H-591.152H-517.732H-444.312H-370.892H-297.473H-224.053H-150.633H-77.194H-3.7741H69.6268H143.047H216.466H289.886H363.306H436.745H510.165H583.585H657.005H730.425H803.844H877.264H950.703H1024.12H1097.54H1170.96H1244.38H1317.8Z" stroke="white" stroke-miterlimit="10"/>
<path d="M1345.71 526.374H1270.49H1195.28H1120.05H1044.82H969.596H894.368H819.16H743.933H668.706H593.478H518.27H443.043H367.816H292.588H217.361H142.153H66.9254H-8.28295H-83.5103H-158.718H-233.946H-309.173H-384.4H-459.609H-534.836H-610.063H-685.291H-760.518H-835.726H-910.953H-986.181H-910.953H-835.726H-760.518H-685.291H-610.063H-534.836H-459.609H-384.4H-309.173H-233.946H-158.718H-83.5103H-8.28295H66.9254H142.153H217.361H292.588H367.816H443.043H518.27H593.478H668.706H743.933H819.16H894.368H969.596H1044.82H1120.05H1195.28H1270.49H1345.71Z" stroke="white" stroke-miterlimit="10"/>
<path d="M1375.03 547.549H1297.92H1220.79H1143.68H1066.57H989.459H912.348H835.237H758.107H680.996H603.885H526.774H449.664H372.534H295.423H218.312H141.201H64.0903H-13.0015H-90.1123H-167.242H-244.353H-321.464H-398.575H-475.686H-552.796H-629.926H-707.037H-784.148H-861.259H-938.37H-1015.5H-938.37H-861.259H-784.148H-707.037H-629.926H-552.796H-475.686H-398.575H-321.464H-244.353H-167.242H-90.1123H-13.0015H64.0903H141.201H218.312H295.423H372.534H449.664H526.774H603.885H680.996H758.107H835.237H912.348H989.459H1066.57H1143.68H1220.79H1297.92H1375.03Z" stroke="white" stroke-miterlimit="10"/>
<path d="M1405.85 569.809H1326.74H1247.64H1168.55H1089.44H1010.33H931.24H852.132H773.023H693.934H614.825H535.717H456.608H377.519H298.41H219.302H140.212H61.1035H-17.986H-97.0755H-176.184H-255.293H-334.382H-413.491H-492.599H-571.689H-650.797H-729.906H-808.995H-888.104H-967.212H-1046.32H-967.212H-888.104H-808.995H-729.906H-650.797H-571.689H-492.599H-413.491H-334.382H-255.293H-176.184H-97.0755H-17.986H61.1035H140.212H219.302H298.41H377.519H456.608H535.717H614.825H693.934H773.023H852.132H931.24H1010.33H1089.44H1168.55H1247.64H1326.74H1405.85Z" stroke="white" stroke-miterlimit="10"/>
<path d="M1438.31 593.249H1357.11H1275.91H1194.71H1113.52H1032.32H951.122H869.92H788.738H707.537H626.335H545.134H463.952H382.75H301.549H220.348H139.165H57.9641H-23.2183H-104.401H-185.602H-266.803H-348.005H-429.187H-510.388H-591.59H-672.791H-753.973H-835.175H-916.376H-997.577H-1078.76H-997.577H-916.376H-835.175H-753.973H-672.791H-591.59H-510.388H-429.187H-348.005H-266.803H-185.602H-104.401H-23.2183H57.9641H139.165H220.348H301.549H382.75H463.952H545.134H626.335H707.537H788.738H869.92H951.122H1032.32H1113.52H1194.71H1275.91H1357.11H1438.31Z" stroke="white" stroke-miterlimit="10"/>
<path d="M1472.52 617.963H1389.11H1305.72H1222.31H1138.9H1055.5H972.088H888.699H805.291H721.882H638.474H555.085H471.676H388.268H304.86H221.451H138.062H54.6537H-28.7355H-112.144H-195.533H-278.941H-362.35H-445.758H-529.147H-612.556H-695.964H-779.372H-862.781H-946.17H-1029.58H-1112.99H-1029.58H-946.17H-862.781H-779.372H-695.964H-612.556H-529.147H-445.758H-362.35H-278.941H-195.533H-112.144H-28.7355H54.6537H138.062H221.451H304.86H388.268H471.676H555.085H638.474H721.882H805.291H888.699H972.088H1055.5H1138.9H1222.31H1305.72H1389.11H1472.52Z" stroke="white" stroke-miterlimit="10"/>
<path d="M1508.65 644.066H1422.92H1337.19H1251.44H1165.71H1079.98H994.234H908.504H822.775H737.045H651.297H565.568H479.838H394.09H308.36H222.631H136.882H51.1529H-34.5575H-120.287H-206.035H-291.765H-377.494H-463.243H-548.972H-634.702H-720.45H-806.18H-891.909H-977.638H-1063.39H-1149.12H-1063.39H-977.638H-891.909H-806.18H-720.45H-634.702H-548.972H-463.243H-377.494H-291.765H-206.035H-120.287H-34.5575H51.1529H136.882H222.631H308.36H394.09H479.838H565.568H651.297H737.045H822.775H908.504H994.234H1079.98H1165.71H1251.44H1337.19H1422.92H1508.65Z" stroke="white" stroke-miterlimit="10"/>
<path d="M1546.87 671.653H1458.67H1370.47H1282.26H1194.06H1105.86H1017.65H929.451H841.268H753.065H664.862H576.66H488.457H400.254H312.051H223.848H135.665H47.4619H-40.7218H-128.925H-217.127H-305.33H-393.533H-481.717H-569.919H-658.122H-746.325H-834.528H-922.731H-1010.93H-1099.14H-1187.32H-1099.14H-1010.93H-922.731H-834.528H-746.325H-658.122H-569.919H-481.717H-393.533H-305.33H-217.127H-128.925H-40.7218H47.4619H135.665H223.848H312.051H400.254H488.457H576.66H664.862H753.065H841.268H929.451H1017.65H1105.86H1194.06H1282.26H1370.47H1458.67H1546.87Z" stroke="white" stroke-miterlimit="10"/>
<path d="M1587.34 700.896H1496.53H1405.72H1314.89H1224.08H1133.27H1042.46H951.655H860.845H770.036H679.227H588.418H497.589H406.78H315.971H225.161H134.352H43.5428H-47.2475H-138.057H-228.866H-319.675H-410.504H-501.313H-592.122H-682.931H-773.741H-864.55H-955.359H-1046.17H-1137H-1227.81H-1137H-1046.17H-955.359H-864.55H-773.741H-682.931H-592.122H-501.313H-410.504H-319.675H-228.866H-138.057H-47.2475H43.5428H134.352H225.161H315.971H406.78H497.589H588.418H679.227H770.036H860.845H951.655H1042.46H1133.27H1224.08H1314.89H1405.72H1496.53H1587.34Z" stroke="white" stroke-miterlimit="10"/>
<path d="M1630.28 731.907H1536.69H1443.11H1349.54H1255.95H1162.36H1068.78H975.208H881.621H788.034H694.466H600.879H507.292H413.705H320.137H226.55H132.963H39.3761H-54.1728H-147.76H-241.347H-334.915H-428.502H-522.089H-615.676H-709.244H-802.831H-896.418H-989.986H-1083.57H-1177.16H-1270.75H-1177.16H-1083.57H-989.986H-896.418H-802.831H-709.244H-615.676H-522.089H-428.502H-334.915H-241.347H-147.76H-54.1728H39.3761H132.963H226.55H320.137H413.705H507.292H600.879H694.466H788.034H881.621H975.208H1068.78H1162.36H1255.95H1349.54H1443.11H1536.69H1630.28Z" stroke="white" stroke-miterlimit="10"/>
<path d="M1675.92 764.879H1579.39H1482.87H1386.33H1289.82H1193.28H1096.76H1000.23H903.71H807.174H710.657H614.121H517.604H421.068H324.551H228.015H131.498H34.9622H-61.5357H-158.072H-254.589H-351.125H-447.642H-544.178H-640.695H-737.231H-833.748H-930.283H-1026.8H-1123.34H-1219.85H-1316.39H-1219.85H-1123.34H-1026.8H-930.283H-833.748H-737.231H-640.695H-544.178H-447.642H-351.125H-254.589H-158.072H-61.5357H34.9622H131.498H228.015H324.551H421.068H517.604H614.121H710.657H807.174H903.71H1000.23H1096.76H1193.28H1289.82H1386.33H1482.87H1579.39H1675.92Z" stroke="white" stroke-miterlimit="10"/>
<path d="M1724.53 800H1624.88H1525.2H1425.54H1325.87H1226.21H1126.56H1026.88H927.225H827.569H727.894H628.238H528.582H428.907H329.25H229.594H129.919H30.2629H-69.3743H-169.03H-268.706H-368.362H-468.037H-567.693H-667.35H-767.025H-866.681H-966.337H-1066.01H-1165.67H-1265.32H-1365H-1265.32H-1165.67H-1066.01H-966.337H-866.681H-767.025H-667.35H-567.693H-468.037H-368.362H-268.706H-169.03H-69.3743H30.2629H129.919H229.594H329.25H428.907H528.582H628.238H727.894H827.569H927.225H1026.88H1126.56H1226.21H1325.87H1425.54H1525.2H1624.88H1724.53Z" stroke="white" stroke-miterlimit="10"/>
<rect width="360" height="400" fill="url(#paint0_linear_5372_38179)"/>
</g>
<defs>
<linearGradient id="paint0_linear_5372_38179" x1="180" y1="0" x2="180" y2="400" gradientUnits="userSpaceOnUse">
<stop offset="0.609898" stop-color="#E6E7EB"/>
<stop offset="1" stop-color="#E6E7EB" stop-opacity="0"/>
</linearGradient>
<clipPath id="clip0_5372_38179">
<rect width="360" height="800" fill="white"/>
</clipPath>
</defs>
</svg>
