<svg width="24" height="24" viewBox="0 0 24 24" fill="none" xmlns="http://www.w3.org/2000/svg">
<g id="Group">
<path id="Path" d="M13.0004 20.0033H20.17C20.6903 20.0033 21.1237 19.6045 21.1669 19.086L22.0006 9.08179C22.0238 8.80299 21.9293 8.52719 21.7398 8.32132C21.5504 8.11544 21.2834 7.99829 21.0036 7.99829H8.99872" stroke="white" stroke-width="1.5" stroke-linecap="round" stroke-linejoin="round"/>
<path id="Path_2" fill-rule="evenodd" clip-rule="evenodd" d="M11.5995 17.0021H3.39675C2.91987 17.0021 2.50928 17.3387 2.41576 17.8063L2.01559 19.8071C1.95681 20.101 2.0329 20.4058 2.22291 20.6376C2.41293 20.8694 2.69686 21.0037 2.99657 21.0037H11.9996C12.2994 21.0037 12.5833 20.8694 12.7733 20.6376C12.9633 20.4058 13.0394 20.101 12.9806 19.8071L12.5805 17.8063C12.4869 17.3387 12.0763 17.0021 11.5995 17.0021Z" stroke="white" stroke-width="1.5" stroke-linecap="round" stroke-linejoin="round"/>
<path id="Path_3" d="M19.0029 7.99836V6.93212C19.0029 4.99832 17.4353 3.43066 15.5015 3.43066V3.43066C13.5677 3.43066 12 4.99832 12 6.93212V7.99836" stroke="white" stroke-width="1.5" stroke-linecap="round" stroke-linejoin="round"/>
<path id="Path_4" fill-rule="evenodd" clip-rule="evenodd" d="M7.49812 1.99585V1.99585C8.32689 1.99585 8.99875 2.6677 8.99875 3.49647V16.5019C8.99875 16.7781 8.7748 17.0021 8.49854 17.0021H6.49771C6.22145 17.0021 5.9975 16.7781 5.9975 16.5019V3.49647C5.9975 2.6677 6.66935 1.99585 7.49812 1.99585Z" stroke="white" stroke-width="1.5" stroke-linecap="round" stroke-linejoin="round"/>
</g>
</svg>
