<svg width="13" height="12" viewBox="0 0 13 12" fill="none" xmlns="http://www.w3.org/2000/svg">
<path d="M8.92273 6.20455L8.06591 5.34773C8.15455 4.88485 8.02159 4.45152 7.66705 4.04773C7.3125 3.64394 6.85455 3.48636 6.29318 3.575L5.43636 2.71818C5.60379 2.63939 5.77367 2.5803 5.94602 2.54091C6.11837 2.50152 6.30303 2.48182 6.5 2.48182C7.23864 2.48182 7.86648 2.74034 8.38352 3.25739C8.90057 3.77443 9.15909 4.40227 9.15909 5.14091C9.15909 5.33788 9.13939 5.52254 9.1 5.69489C9.06061 5.86724 9.00152 6.03712 8.92273 6.20455ZM10.8136 8.06591L9.95682 7.23864C10.3311 6.95303 10.6634 6.64034 10.954 6.30057C11.2445 5.9608 11.4932 5.57424 11.7 5.14091C11.2076 4.14621 10.5009 3.35587 9.58011 2.76989C8.65928 2.1839 7.63258 1.89091 6.5 1.89091C6.21439 1.89091 5.93371 1.91061 5.65795 1.95C5.3822 1.98939 5.11136 2.04849 4.84545 2.12727L3.92955 1.21136C4.33333 1.04394 4.74697 0.918371 5.17045 0.834659C5.59394 0.750947 6.03712 0.709091 6.5 0.709091C7.98712 0.709091 9.31174 1.12027 10.4739 1.94261C11.636 2.76496 12.478 3.83106 13 5.14091C12.7735 5.72197 12.4756 6.26117 12.1062 6.75852C11.7369 7.25587 11.3061 7.69167 10.8136 8.06591ZM11.1091 11.7L8.62727 9.24773C8.28258 9.35606 7.93542 9.43731 7.5858 9.49148C7.23617 9.54564 6.87424 9.57273 6.5 9.57273C5.01288 9.57273 3.68826 9.16155 2.52614 8.3392C1.36402 7.51686 0.52197 6.45076 0 5.14091C0.206818 4.61894 0.467803 4.1339 0.782955 3.6858C1.09811 3.23769 1.45758 2.83636 1.86136 2.48182L0.236364 0.827273L1.06364 0L11.9364 10.8727L11.1091 11.7ZM2.68864 3.30909C2.40303 3.56515 2.14205 3.84583 1.90568 4.15114C1.66932 4.45644 1.46742 4.78636 1.3 5.14091C1.79242 6.13561 2.49905 6.92595 3.41989 7.51193C4.34072 8.09792 5.36742 8.39091 6.5 8.39091C6.69697 8.39091 6.88902 8.3786 7.07614 8.35398C7.26326 8.32936 7.4553 8.30227 7.65227 8.27273L7.12045 7.71136C7.01212 7.74091 6.90871 7.76307 6.81023 7.77784C6.71174 7.79261 6.60833 7.8 6.5 7.8C5.76136 7.8 5.13352 7.54148 4.61648 7.02443C4.09943 6.50739 3.84091 5.87955 3.84091 5.14091C3.84091 5.03258 3.8483 4.92917 3.86307 4.83068C3.87784 4.7322 3.9 4.62879 3.92955 4.52045L2.68864 3.30909Z" fill="#757575"/>
<path d="M8.92273 6.20455L8.06591 5.34773C8.15455 4.88485 8.02159 4.45152 7.66705 4.04773C7.3125 3.64394 6.85455 3.48636 6.29318 3.575L5.43636 2.71818C5.60379 2.63939 5.77367 2.5803 5.94602 2.54091C6.11837 2.50152 6.30303 2.48182 6.5 2.48182C7.23864 2.48182 7.86648 2.74034 8.38352 3.25739C8.90057 3.77443 9.15909 4.40227 9.15909 5.14091C9.15909 5.33788 9.13939 5.52254 9.1 5.69489C9.06061 5.86724 9.00152 6.03712 8.92273 6.20455ZM10.8136 8.06591L9.95682 7.23864C10.3311 6.95303 10.6634 6.64034 10.954 6.30057C11.2445 5.9608 11.4932 5.57424 11.7 5.14091C11.2076 4.14621 10.5009 3.35587 9.58011 2.76989C8.65928 2.1839 7.63258 1.89091 6.5 1.89091C6.21439 1.89091 5.93371 1.91061 5.65795 1.95C5.3822 1.98939 5.11136 2.04849 4.84545 2.12727L3.92955 1.21136C4.33333 1.04394 4.74697 0.918371 5.17045 0.834659C5.59394 0.750947 6.03712 0.709091 6.5 0.709091C7.98712 0.709091 9.31174 1.12027 10.4739 1.94261C11.636 2.76496 12.478 3.83106 13 5.14091C12.7735 5.72197 12.4756 6.26117 12.1062 6.75852C11.7369 7.25587 11.3061 7.69167 10.8136 8.06591ZM11.1091 11.7L8.62727 9.24773C8.28258 9.35606 7.93542 9.43731 7.5858 9.49148C7.23617 9.54564 6.87424 9.57273 6.5 9.57273C5.01288 9.57273 3.68826 9.16155 2.52614 8.3392C1.36402 7.51686 0.52197 6.45076 0 5.14091C0.206818 4.61894 0.467803 4.1339 0.782955 3.6858C1.09811 3.23769 1.45758 2.83636 1.86136 2.48182L0.236364 0.827273L1.06364 0L11.9364 10.8727L11.1091 11.7ZM2.68864 3.30909C2.40303 3.56515 2.14205 3.84583 1.90568 4.15114C1.66932 4.45644 1.46742 4.78636 1.3 5.14091C1.79242 6.13561 2.49905 6.92595 3.41989 7.51193C4.34072 8.09792 5.36742 8.39091 6.5 8.39091C6.69697 8.39091 6.88902 8.3786 7.07614 8.35398C7.26326 8.32936 7.4553 8.30227 7.65227 8.27273L7.12045 7.71136C7.01212 7.74091 6.90871 7.76307 6.81023 7.77784C6.71174 7.79261 6.60833 7.8 6.5 7.8C5.76136 7.8 5.13352 7.54148 4.61648 7.02443C4.09943 6.50739 3.84091 5.87955 3.84091 5.14091C3.84091 5.03258 3.8483 4.92917 3.86307 4.83068C3.87784 4.7322 3.9 4.62879 3.92955 4.52045L2.68864 3.30909Z" fill="black" fill-opacity="0.2"/>
</svg>
