<svg width="22" height="22" viewBox="0 0 22 22" fill="none" xmlns="http://www.w3.org/2000/svg">
<mask id="mask0_1086_7559" style="mask-type:alpha" maskUnits="userSpaceOnUse" x="0" y="0" width="22" height="22">
<rect width="22" height="22" fill="#D9D9D9"/>
</mask>
<g mask="url(#mask0_1086_7559)">
<path d="M10.5145 17.5677C10.292 17.5677 10.1054 17.4924 9.95487 17.3418C9.80432 17.1913 9.72904 17.0047 9.72904 16.7822V12.0693L5.17327 6.25677C4.9769 5.99494 4.94744 5.72002 5.0849 5.43201C5.22236 5.144 5.46128 5 5.80165 5H16.7984C17.1387 5 17.3776 5.144 17.5151 5.43201C17.6526 5.72002 17.6231 5.99494 17.4267 6.25677L12.871 12.0693V16.7822C12.871 17.0047 12.7957 17.1913 12.6451 17.3418C12.4946 17.4924 12.308 17.5677 12.0855 17.5677H10.5145ZM11.3 11.5195L15.1881 6.57096H7.41188L11.3 11.5195Z" fill="#757575"/>
<path d="M10.5145 17.5677C10.292 17.5677 10.1054 17.4924 9.95487 17.3418C9.80432 17.1913 9.72904 17.0047 9.72904 16.7822V12.0693L5.17327 6.25677C4.9769 5.99494 4.94744 5.72002 5.0849 5.43201C5.22236 5.144 5.46128 5 5.80165 5H16.7984C17.1387 5 17.3776 5.144 17.5151 5.43201C17.6526 5.72002 17.6231 5.99494 17.4267 6.25677L12.871 12.0693V16.7822C12.871 17.0047 12.7957 17.1913 12.6451 17.3418C12.4946 17.4924 12.308 17.5677 12.0855 17.5677H10.5145ZM11.3 11.5195L15.1881 6.57096H7.41188L11.3 11.5195Z" fill="black" fill-opacity="0.2"/>
</g>
</svg>
