<svg width="24" height="24" viewBox="0 0 24 24" fill="none" xmlns="http://www.w3.org/2000/svg">
<g id="Group">
<g id="Group_2">
<path id="Path" d="M17 20.571C16.172 19.571 15.086 19.071 14 19.071C15.086 19.071 16.172 18.571 17 17.571" stroke="#F2F4F7" stroke-width="1.5" stroke-linecap="round" stroke-linejoin="round"/>
<path id="Path_2" d="M10 15.934V22H14V15.933" stroke="#F2F4F7" stroke-width="1.5" stroke-linecap="round" stroke-linejoin="round"/>
<path id="Path_3" d="M14 19.0699H10" stroke="#F2F4F7" stroke-width="1.5" stroke-linecap="round" stroke-linejoin="round"/>
<path id="Path_4" d="M19.441 10.4571C19.619 10.3421 19.79 10.2111 19.946 10.0551L22 8.00006C21.154 7.15406 20.021 6.76806 18.914 6.84406C18.989 5.73706 18.604 4.60406 17.758 3.75806L15.704 5.81206C14.725 6.79006 14.575 8.27006 15.23 9.41606" stroke="#F2F4F7" stroke-width="1.5" stroke-linecap="round" stroke-linejoin="round"/>
<path id="Path_5" fill-rule="evenodd" clip-rule="evenodd" d="M19.591 12.336L14.599 15.664C14.27 15.883 13.884 16 13.489 16H10.509C10.114 16 9.72801 15.883 9.40001 15.664L4.40801 12.336C3.91201 12.005 3.82201 11.323 4.19401 10.856C4.98501 9.86103 6.20501 9.22003 7.57701 9.22003C7.99601 9.22003 8.405 9.30403 8.793 9.41903C9.589 8.54903 10.732 8.00403 11.999 8.00403C13.266 8.00403 14.409 8.54903 15.216 9.41903C15.604 9.30403 16.002 9.22003 16.432 9.22003C17.795 9.22003 19.014 9.86103 19.806 10.856C20.176 11.323 20.087 12.005 19.591 12.336V12.336Z" stroke="#F2F4F7" stroke-width="1.5" stroke-linecap="round" stroke-linejoin="round"/>
<path id="Path_6" d="M13.8 8.39797C14.533 7.85097 15.014 6.98497 15.014 5.99997V3.09497C13.817 3.09497 12.744 3.62297 12.014 4.45997C11.284 3.62397 10.211 3.09497 9.01401 3.09497V5.99997C9.01401 6.97897 9.49001 7.83997 10.216 8.38797" stroke="#F2F4F7" stroke-width="1.5" stroke-linecap="round" stroke-linejoin="round"/>
<path id="Path_7" d="M4.559 10.4571C4.381 10.3421 4.21 10.2111 4.054 10.0551L2 8.00006C2.846 7.15406 3.979 6.76806 5.086 6.84406C5.011 5.73706 5.396 4.60406 6.242 3.75806L8.296 5.81206C9.275 6.79006 9.425 8.27006 8.77 9.41606" stroke="#F2F4F7" stroke-width="1.5" stroke-linecap="round" stroke-linejoin="round"/>
</g>
</g>
</svg>
