<svg width="22" height="22" viewBox="0 0 22 22" fill="none" xmlns="http://www.w3.org/2000/svg">
<g id="ios_share">
<mask id="mask0_1092_3229" style="mask-type:alpha" maskUnits="userSpaceOnUse" x="0" y="0" width="22" height="22">
<rect id="Bounding box" width="22" height="22" fill="#D9D9D9"/>
</mask>
<g mask="url(#mask0_1092_3229)">
<g id="ios_share_2">
<path d="M7.18182 17C6.85682 17 6.5786 16.8843 6.34716 16.6528C6.11572 16.4214 6 16.1432 6 15.8182V9.31818C6 8.99318 6.11572 8.71496 6.34716 8.48352C6.5786 8.25208 6.85682 8.13636 7.18182 8.13636H8.95455V9.31818H7.18182V15.8182H14.2727V9.31818H12.5V8.13636H14.2727C14.5977 8.13636 14.8759 8.25208 15.1074 8.48352C15.3388 8.71496 15.4545 8.99318 15.4545 9.31818V15.8182C15.4545 16.1432 15.3388 16.4214 15.1074 16.6528C14.8759 16.8843 14.5977 17 14.2727 17H7.18182ZM10.1364 12.8636V6.26023L9.19091 7.20568L8.36364 6.36364L10.7273 4L13.0909 6.36364L12.2636 7.20568L11.3182 6.26023V12.8636H10.1364Z" fill="#757575"/>
<path d="M7.18182 17C6.85682 17 6.5786 16.8843 6.34716 16.6528C6.11572 16.4214 6 16.1432 6 15.8182V9.31818C6 8.99318 6.11572 8.71496 6.34716 8.48352C6.5786 8.25208 6.85682 8.13636 7.18182 8.13636H8.95455V9.31818H7.18182V15.8182H14.2727V9.31818H12.5V8.13636H14.2727C14.5977 8.13636 14.8759 8.25208 15.1074 8.48352C15.3388 8.71496 15.4545 8.99318 15.4545 9.31818V15.8182C15.4545 16.1432 15.3388 16.4214 15.1074 16.6528C14.8759 16.8843 14.5977 17 14.2727 17H7.18182ZM10.1364 12.8636V6.26023L9.19091 7.20568L8.36364 6.36364L10.7273 4L13.0909 6.36364L12.2636 7.20568L11.3182 6.26023V12.8636H10.1364Z" fill="black" fill-opacity="0.2"/>
</g>
</g>
</g>
</svg>
