<svg width="18" height="19" viewBox="0 0 18 19" fill="none" xmlns="http://www.w3.org/2000/svg">
<mask id="mask0_1087_5640" style="mask-type:alpha" maskUnits="userSpaceOnUse" x="0" y="0" width="18" height="19">
<rect y="0.687012" width="18" height="18" fill="#D9D9D9"/>
</mask>
<g mask="url(#mask0_1087_5640)">
<path d="M3.75 16.4375C3.3375 16.4375 2.98438 16.2906 2.69063 15.9969C2.39688 15.7031 2.25 15.35 2.25 14.9375V4.4375C2.25 4.025 2.39688 3.67187 2.69063 3.37812C2.98438 3.08437 3.3375 2.9375 3.75 2.9375H9V4.4375H3.75V14.9375H9V16.4375H3.75ZM12 13.4375L10.9688 12.35L12.8813 10.4375H6.75V8.9375H12.8813L10.9688 7.025L12 5.9375L15.75 9.6875L12 13.4375Z" fill="#1C1B1F"/>
</g>
</svg>
