<svg width="35" height="42" viewBox="0 0 35 42" fill="none" xmlns="http://www.w3.org/2000/svg">
<g id="&#208;&#145;&#208;&#181;&#208;&#187;&#208;&#179;&#208;&#190;&#209;&#128;&#208;&#190;&#208;&#180;&#209;&#129;&#208;&#186;&#208;&#176;&#209;&#143;_&#208;&#190;&#208;&#177;&#208;&#187;&#208;&#176;&#209;&#129;&#209;&#130;&#209;&#140; 1" clip-path="url(#clip0_97_1128)">
<path id="Vector" d="M0.796265 0V30.762C0.796265 36.3 3.9496 38.181 9.15738 38.4C16.324 38.7 17.5185 42 17.5185 42C17.5185 42 18.7129 38.7 25.8796 38.4C31.0874 38.181 34.2407 36.3 34.2407 30.762V0H0.796265ZM31.2546 35.649C30.1199 36.588 28.3461 37.095 25.8288 37.2C21.1406 37.395 18.7249 38.811 17.5185 39.99C16.3091 38.811 13.8963 37.395 9.20814 37.2C6.69383 37.095 4.92008 36.588 3.78238 35.649C3.38224 35.319 3.05974 34.917 2.79397 34.452C10.3906 33.126 17.8858 33.219 17.8858 33.219C17.9604 32.943 17.9873 32.595 18.1097 32.244C18.3218 31.704 19.0175 30.972 20.2418 30.972L21.3616 31.056C21.3616 29.706 21.9738 28.503 22.9323 27.705C23.004 27.633 23.0458 27.597 23.0458 27.597C22.4396 27.612 22.0514 27.528 22.0514 27.528C20.7554 27.405 20.2508 26.106 19.7222 24.471C19.5401 23.907 19.3549 23.301 19.134 22.692C18.4143 20.256 15.7059 19.98 15.1177 20.388C12.6511 18.702 10.4862 20.403 10.2055 21.042C10.531 21.042 10.7968 21.309 10.7968 21.636C10.7968 21.861 10.6713 22.056 10.4862 22.155L10.0801 22.413C9.85911 22.554 9.72772 22.797 9.72772 23.058L7.733 24.696C7.62251 24.801 7.52099 25.032 7.64043 25.233L8.69751 26.223C8.73633 25.896 8.72439 25.59 9.23501 25.422C10.1547 25.146 10.4026 25.554 10.4892 25.812C10.5519 26.025 10.5459 26.214 10.4892 26.376L10.4235 26.37C10.1249 26.202 9.75161 26.112 9.36043 26.223C8.96626 26.337 8.69154 26.637 8.48849 26.745C8.28543 26.859 8.04953 26.898 7.90321 26.844C7.83154 26.814 7.7539 26.76 7.70911 26.637C7.66133 26.514 7.66432 26.352 7.67626 26.169C7.52397 26.268 7.40154 26.424 7.35078 26.634C7.29703 26.841 7.37168 27.117 7.55981 27.291C7.74793 27.462 8.00175 27.528 8.22571 27.516C8.44967 27.504 8.65571 27.429 8.83488 27.315C8.85876 27.3 8.87668 27.285 8.90057 27.27C8.87369 27.369 8.85279 27.483 8.85279 27.597C8.85279 28.017 9.06481 28.299 9.30369 28.416C9.39626 28.461 9.55453 28.398 9.55154 28.242C9.55154 27.591 9.90092 27.465 10.4623 27.264C10.9072 27.105 11.6209 26.841 12.027 26.688C12.1256 26.658 12.3406 26.568 12.3406 26.568C12.3406 26.565 12.3436 26.565 12.3436 26.565C12.7676 26.37 13.1259 26.061 13.3827 25.677C13.75 24.99 13.7948 24.609 13.7948 24.609C13.8277 24.339 13.8097 24.198 13.8097 24.198C14.407 24.198 14.5921 24.651 14.5533 25.011C14.4099 26.004 13.7769 26.595 13.0124 27.354C12.7079 27.657 12.2988 27.969 12.0778 28.29C11.3701 29.316 11.2536 30.474 12.8631 31.434C12.9288 31.473 13.0841 31.596 13.1438 31.662C13.5798 32.202 13.1677 32.652 12.9049 32.652C12.5377 32.088 12.2092 32.016 12.036 31.941C11.5433 31.725 10.8804 31.572 10.5429 30.942C9.89793 31.32 9.37238 31.521 8.29738 31.521L5.74126 31.524C5.0037 31.536 4.3139 32.049 4.23925 32.76C4.22432 32.901 4.23925 33.324 4.23925 33.324C3.61515 33.396 2.99703 33.474 2.38189 33.558C2.11613 32.775 1.97876 31.848 1.97876 30.762V1.2H33.0343V30.762C33.0343 31.851 32.897 32.775 32.6312 33.561C31.598 33.42 30.6902 33.288 29.6063 33.177C29.6063 33.177 29.7765 32.838 29.9885 32.205C29.9885 32.205 30.6544 31.989 31.0754 31.542C31.383 31.227 31.6129 30.858 31.7682 30.516C31.8727 30.315 31.9414 30.102 31.9743 29.871C31.9743 29.868 31.9743 29.868 31.9743 29.865C32.031 29.466 31.9832 29.022 31.8249 28.533C31.3979 27.441 30.5917 26.61 29.4211 26.061C28.4954 25.653 26.2827 25.473 25.9811 25.458C23.2608 25.338 22.571 24.849 22.568 24.849L22.5322 24.819C22.1977 24.576 21.9977 24.183 21.9977 23.769C21.9977 23.058 22.574 22.479 23.3115 22.476C23.3354 22.473 23.7953 22.461 24.3716 22.956C24.3955 24.051 25.2854 24.933 26.3843 24.933C27.4981 24.933 28.3969 24.027 28.3969 22.911C28.3969 22.368 28.1819 21.876 27.8355 21.513C27.8474 21.582 27.8534 21.651 27.8534 21.723C27.8534 22.539 27.1965 23.199 26.3843 23.199C25.9662 23.199 25.5899 23.022 25.3212 22.74C25.3182 22.737 25.2585 22.683 25.1779 22.608C24.291 21.681 23.437 21.66 23.2727 21.666C22.1231 21.672 21.1854 22.614 21.1854 23.769C21.1854 24.438 21.5049 25.074 22.0454 25.467C22.2276 25.617 23.0697 26.142 25.9453 26.268C26.3843 26.286 28.3551 26.475 29.0867 26.799C30.0572 27.255 30.7231 27.936 31.0635 28.806C31.2427 29.367 31.2307 29.832 31.0277 30.186C30.9799 30.273 30.9172 30.345 30.8545 30.414C30.7619 30.492 30.6454 30.54 30.514 30.54C30.3349 30.54 30.1796 30.453 30.084 30.318C30.0542 30.279 30.0094 30.186 30.0094 30.186H30.0064C29.8272 29.787 29.5973 29.355 29.3047 28.941C28.8866 28.308 28.3043 27.798 27.6145 27.471C27.5787 27.453 27.5458 27.438 27.513 27.42C27.1577 27.264 26.7754 27.156 26.3753 27.105C26.3633 27.102 26.3514 27.102 26.3395 27.099C26.1782 27.078 26.011 27.066 25.8438 27.066H25.6795C24.0013 27.066 22.6367 28.425 22.6188 30.108C22.6188 30.114 22.6158 30.12 22.6158 30.123C22.6158 30.126 22.6158 30.126 22.6158 30.129C22.6158 30.132 22.6158 30.135 22.6158 30.141C22.6158 30.183 22.6218 30.219 22.6307 30.258C22.6994 31.011 23.3235 31.605 24.0909 31.605C24.0909 31.605 24.3716 31.608 25.9065 31.605C26.5574 31.605 26.6291 32.208 26.6291 32.208C23.2518 32.613 21.8095 31.932 20.3493 31.923H20.3433C19.8596 31.923 19.4415 32.19 19.2146 32.583C19.2116 32.583 19.0772 32.85 19.0504 33.099C19.0414 33.144 19.0354 33.24 19.0354 33.24C19.0354 33.24 25.4436 33.387 32.1952 34.452L32.2251 34.455C31.9743 34.92 31.6518 35.322 31.2546 35.649Z" fill="white"/>
<path id="Vector_2" d="M22.359 14.7001C22.4754 14.3821 22.4784 14.2081 22.138 13.8361C22.5202 13.7011 22.6904 14.1961 22.6904 14.1961C22.777 13.9231 22.7531 13.6831 22.7113 13.5301C22.6098 13.1521 22.1141 13.0381 21.6692 13.3651C21.4183 13.5511 21.2511 13.9381 20.9764 14.0161C20.839 14.0551 19.8536 13.7521 19.8536 13.7521C20.0268 13.4911 20.2926 13.1911 20.3105 12.8041C20.3284 12.4081 19.9402 11.7931 19.3669 11.7691C19.2056 11.7631 19.0802 11.7901 18.9757 11.8351C18.9877 11.8051 18.9996 11.7781 19.0115 11.7451C19.0862 11.5591 19.2056 11.2681 19.3131 11.0071C20.5255 11.6161 22.2127 11.7931 23.6818 11.2111L23.5116 10.6471C24.6523 10.9771 25.2017 10.9171 25.799 10.8481L24.9031 10.0081C27.1606 10.2871 27.8295 10.0231 28.5432 9.46206L26.0379 8.60406C28.4447 8.59806 29.7406 7.80306 30.7917 6.50706L27.0442 6.96306C30.0781 6.23106 31.4487 4.67706 31.6099 2.86206C28.1341 5.81706 22.6785 5.65206 21.3616 5.65206C20.9764 5.65206 20.5255 6.01506 20.5255 6.41406C20.5255 7.03506 21.0929 7.21506 21.0929 8.07006C21.0929 8.47806 20.7017 8.88306 20.2567 9.01506L19.6595 8.61906C19.7521 7.00806 19.5998 5.92506 18.922 5.78106C18.922 5.78106 19.7491 5.46906 19.6536 4.69506C18.8563 5.01006 18.4203 4.94406 17.5424 4.95006C15.6641 4.95006 15.6671 6.09606 15.7179 6.36306C15.9149 6.21306 16.1807 6.13206 16.5181 6.13206C16.8167 6.13206 16.984 6.51006 16.984 6.80106C16.984 7.77306 16.1747 8.13306 15.5357 8.77206H15.5267V8.77506L15.2908 8.96706C14.7862 8.92806 14.2756 8.47506 14.2756 8.01606C14.2756 7.19106 14.825 7.01706 14.825 6.41706C14.825 6.03306 14.3771 5.61006 14.0188 5.68206C12.1972 6.05106 6.51168 5.19006 4.12279 2.98806C4.27807 4.74006 5.7771 6.21006 8.70647 6.91506L4.91112 6.50406C5.9264 7.75506 7.18057 8.52006 9.50376 8.52606L7.08203 9.35406C7.77182 9.89406 8.41682 10.1521 10.5997 9.88206L9.73369 10.6921C10.31 10.7581 10.8415 10.8181 11.9434 10.4971L11.7792 11.0431C13.1319 11.5891 14.4876 11.5651 15.8433 10.9441C15.9478 11.2021 16.0702 11.5021 16.1598 11.7301C16.1717 11.7601 16.1867 11.7901 16.2016 11.8201C16.1031 11.7811 15.9896 11.7571 15.8433 11.7661C15.2699 11.7901 14.8817 12.4051 14.8997 12.8011C14.9176 13.1881 15.1804 13.4851 15.3565 13.7491C15.3565 13.7491 14.3681 14.0491 14.2338 14.0131C13.959 13.9351 13.7918 13.5481 13.541 13.3621C13.0961 13.0351 12.6004 13.1491 12.4988 13.5271C12.457 13.6801 12.4331 13.9231 12.5197 14.1931C12.5197 14.1931 12.6899 13.6981 13.0722 13.8331C12.7317 14.2051 12.7347 14.3791 12.8512 14.6971C13.105 14.2261 13.75 14.1961 14.2129 14.4931C14.9236 14.9491 14.7802 15.2431 14.5443 15.6931C15.261 15.4381 15.3565 15.2161 14.9415 14.3821L15.9567 13.9801C16.0284 13.9501 16.0672 13.8721 16.0463 13.7971C15.9806 13.5601 15.912 13.0861 16.4077 13.0621C16.6585 13.0501 16.763 13.2451 16.8287 13.4641C16.8586 13.6411 16.8795 13.8301 16.8795 14.0431C16.8795 15.1891 15.8612 16.1581 15.4969 16.3651C16.0135 16.6471 16.5002 16.6321 17.0228 16.2631C17.1303 16.6861 17.2647 16.9201 17.5931 17.1781C17.9246 16.9201 18.0679 16.6861 18.1754 16.2631C18.698 16.6321 19.1728 16.6471 19.6894 16.3651C19.3251 16.1581 18.3068 15.1921 18.3068 14.0431C18.3068 13.9171 18.3128 13.8031 18.3247 13.6921C18.3934 13.4011 18.4681 13.0441 18.8055 13.0591C19.2982 13.0831 19.2325 13.5601 19.1668 13.7941C19.1459 13.8691 19.1817 13.9471 19.2564 13.9771L20.2717 14.3791C19.8596 15.2131 19.9522 15.4351 20.6688 15.6901C20.4329 15.2401 20.2926 14.9461 21.0003 14.4901C21.4602 14.1991 22.1052 14.2291 22.359 14.7001Z" fill="white"/>
</g>
<defs>
<clipPath id="clip0_97_1128">
<rect width="33.4444" height="42" fill="white" transform="translate(0.796265)"/>
</clipPath>
</defs>
</svg>
