<svg width="146" height="32" viewBox="0 0 146 32" fill="none" xmlns="http://www.w3.org/2000/svg">
<path d="M54.5181 11.373C55.3154 11.373 56.0361 11.5263 56.6801 11.833C57.3241 12.1397 57.8684 12.6073 58.3131 13.236H58.4281L58.7041 11.603H60.6821V24.161C60.6821 25.3263 60.4751 26.3077 60.0611 27.105C59.6471 27.9023 59.0107 28.5003 58.1521 28.899C57.3087 29.313 56.2431 29.52 54.9551 29.52C54.0657 29.52 53.2454 29.4587 52.4941 29.336C51.7427 29.2133 51.0527 29.0217 50.4241 28.761V26.622C50.8687 26.8367 51.3364 27.013 51.8271 27.151C52.3177 27.3043 52.8391 27.4117 53.3911 27.473C53.9431 27.5497 54.5104 27.588 55.0931 27.588C56.1051 27.588 56.8871 27.2967 57.4391 26.714C57.9911 26.1467 58.2671 25.3417 58.2671 24.299V23.885C58.2671 23.6857 58.2747 23.425 58.2901 23.103C58.3054 22.7657 58.3207 22.5203 58.3361 22.367H58.2441C57.8147 23.011 57.2857 23.4863 56.6571 23.793C56.0437 24.0843 55.3307 24.23 54.5181 24.23C52.9541 24.23 51.7274 23.6703 50.8381 22.551C49.9641 21.4163 49.5271 19.8447 49.5271 17.836C49.5271 16.4867 49.7264 15.3367 50.1251 14.386C50.5237 13.42 51.0911 12.6763 51.8271 12.155C52.5784 11.6337 53.4754 11.373 54.5181 11.373ZM55.0241 13.397C54.3801 13.397 53.8357 13.5733 53.3911 13.926C52.9464 14.2633 52.6091 14.7617 52.3791 15.421C52.1491 16.0803 52.0341 16.893 52.0341 17.859C52.0341 19.3003 52.2871 20.3967 52.7931 21.148C53.3144 21.8993 54.0734 22.275 55.0701 22.275C55.6527 22.275 56.1434 22.1983 56.5421 22.045C56.9561 21.8917 57.2934 21.654 57.5541 21.332C57.8301 21.01 58.0294 20.6037 58.1521 20.113C58.2901 19.607 58.3591 19.0013 58.3591 18.296V17.836C58.3591 16.778 58.2364 15.927 57.9911 15.283C57.7611 14.6237 57.4007 14.1483 56.9101 13.857C56.4194 13.5503 55.7907 13.397 55.0241 13.397ZM69.3788 11.373C70.4674 11.373 71.4028 11.603 72.1848 12.063C72.9668 12.5077 73.5648 13.1517 73.9788 13.995C74.4081 14.8383 74.6228 15.835 74.6228 16.985V18.319H66.2968C66.3274 19.5917 66.6571 20.5653 67.2858 21.24C67.9298 21.9147 68.8268 22.252 69.9768 22.252C70.7741 22.252 71.4794 22.183 72.0928 22.045C72.7214 21.8917 73.3654 21.6693 74.0248 21.378V23.402C73.4114 23.678 72.7828 23.885 72.1388 24.023C71.5101 24.161 70.7588 24.23 69.8848 24.23C68.6888 24.23 67.6308 23.9923 66.7108 23.517C65.7908 23.0417 65.0701 22.3363 64.5488 21.401C64.0428 20.4503 63.7898 19.285 63.7898 17.905C63.7898 16.5097 64.0198 15.329 64.4798 14.363C64.9551 13.397 65.6068 12.661 66.4348 12.155C67.2781 11.6337 68.2594 11.373 69.3788 11.373ZM69.3788 13.259C68.5048 13.259 67.7994 13.5427 67.2628 14.11C66.7414 14.6773 66.4348 15.4823 66.3428 16.525H72.1848C72.1848 15.881 72.0851 15.3137 71.8858 14.823C71.6864 14.3323 71.3798 13.949 70.9658 13.673C70.5518 13.397 70.0228 13.259 69.3788 13.259ZM88.5899 17.79C88.5899 18.8173 88.4519 19.7297 88.1759 20.527C87.8999 21.3243 87.5089 21.999 87.0029 22.551C86.4969 23.103 85.8835 23.5247 85.1629 23.816C84.4422 24.092 83.6295 24.23 82.7249 24.23C81.8969 24.23 81.1302 24.092 80.4249 23.816C79.7195 23.5247 79.1062 23.103 78.5849 22.551C78.0789 21.999 77.6802 21.3243 77.3889 20.527C77.0975 19.7297 76.9519 18.8097 76.9519 17.767C76.9519 16.4023 77.1819 15.2447 77.6419 14.294C78.1172 13.3433 78.7919 12.6227 79.6659 12.132C80.5552 11.626 81.5979 11.373 82.7939 11.373C83.9285 11.373 84.9252 11.626 85.7839 12.132C86.6579 12.6227 87.3402 13.3433 87.8309 14.294C88.3369 15.2447 88.5899 16.41 88.5899 17.79ZM79.4589 17.79C79.4589 18.71 79.5739 19.5073 79.8039 20.182C80.0339 20.8413 80.3942 21.3473 80.8849 21.7C81.3755 22.0527 82.0042 22.229 82.7709 22.229C83.5375 22.229 84.1662 22.0527 84.6569 21.7C85.1475 21.3473 85.5079 20.8413 85.7379 20.182C85.9679 19.5073 86.0829 18.71 86.0829 17.79C86.0829 16.8393 85.9602 16.042 85.7149 15.398C85.4849 14.754 85.1245 14.2633 84.6339 13.926C84.1585 13.5733 83.5299 13.397 82.7479 13.397C81.5979 13.397 80.7622 13.7803 80.2409 14.547C79.7195 15.3137 79.4589 16.3947 79.4589 17.79ZM99.9145 20.504C99.9145 21.3167 99.7152 21.999 99.3165 22.551C98.9178 23.103 98.3428 23.5247 97.5915 23.816C96.8402 24.092 95.9355 24.23 94.8775 24.23C94.0035 24.23 93.2522 24.161 92.6235 24.023C92.0102 23.9003 91.4428 23.7163 90.9215 23.471V21.332C91.4735 21.5927 92.1098 21.8303 92.8305 22.045C93.5512 22.2443 94.2565 22.344 94.9465 22.344C95.8665 22.344 96.5258 22.1983 96.9245 21.907C97.3385 21.6157 97.5455 21.2247 97.5455 20.734C97.5455 20.458 97.4688 20.2127 97.3155 19.998C97.1622 19.768 96.8708 19.538 96.4415 19.308C96.0275 19.0627 95.4142 18.7867 94.6015 18.48C93.8195 18.158 93.1525 17.8437 92.6005 17.537C92.0485 17.215 91.6268 16.8393 91.3355 16.41C91.0442 15.9653 90.8985 15.398 90.8985 14.708C90.8985 13.6347 91.3278 12.8143 92.1865 12.247C93.0605 11.6643 94.2105 11.373 95.6365 11.373C96.3878 11.373 97.0932 11.4497 97.7525 11.603C98.4272 11.741 99.0788 11.9557 99.7075 12.247L98.9025 14.11C98.5498 13.9413 98.1818 13.8033 97.7985 13.696C97.4305 13.5733 97.0548 13.4737 96.6715 13.397C96.3035 13.3203 95.9202 13.282 95.5215 13.282C94.7855 13.282 94.2258 13.397 93.8425 13.627C93.4592 13.857 93.2675 14.179 93.2675 14.593C93.2675 14.8843 93.3518 15.1373 93.5205 15.352C93.7045 15.5667 94.0188 15.7813 94.4635 15.996C94.9082 16.2107 95.5138 16.4713 96.2805 16.778C97.0472 17.0693 97.6988 17.3683 98.2355 17.675C98.7875 17.9817 99.2015 18.3573 99.4775 18.802C99.7688 19.2467 99.9145 19.814 99.9145 20.504ZM105.259 11.603V24H102.821V11.603H105.259ZM104.063 6.888C104.431 6.888 104.753 6.99533 105.029 7.21C105.305 7.42467 105.443 7.785 105.443 8.291C105.443 8.78167 105.305 9.142 105.029 9.372C104.753 9.58667 104.431 9.694 104.063 9.694C103.664 9.694 103.327 9.58667 103.051 9.372C102.79 9.142 102.66 8.78167 102.66 8.291C102.66 7.785 102.79 7.42467 103.051 7.21C103.327 6.99533 103.664 6.888 104.063 6.888ZM113.366 11.373C114.163 11.373 114.884 11.5263 115.528 11.833C116.172 12.1397 116.716 12.6073 117.161 13.236H117.276L117.552 11.603H119.53V24.161C119.53 25.3263 119.323 26.3077 118.909 27.105C118.495 27.9023 117.858 28.5003 117 28.899C116.156 29.313 115.091 29.52 113.803 29.52C112.913 29.52 112.093 29.4587 111.342 29.336C110.59 29.2133 109.9 29.0217 109.272 28.761V26.622C109.716 26.8367 110.184 27.013 110.675 27.151C111.165 27.3043 111.687 27.4117 112.239 27.473C112.791 27.5497 113.358 27.588 113.941 27.588C114.953 27.588 115.735 27.2967 116.287 26.714C116.839 26.1467 117.115 25.3417 117.115 24.299V23.885C117.115 23.6857 117.122 23.425 117.138 23.103C117.153 22.7657 117.168 22.5203 117.184 22.367H117.092C116.662 23.011 116.133 23.4863 115.505 23.793C114.891 24.0843 114.178 24.23 113.366 24.23C111.802 24.23 110.575 23.6703 109.686 22.551C108.812 21.4163 108.375 19.8447 108.375 17.836C108.375 16.4867 108.574 15.3367 108.973 14.386C109.371 13.42 109.939 12.6763 110.675 12.155C111.426 11.6337 112.323 11.373 113.366 11.373ZM113.872 13.397C113.228 13.397 112.683 13.5733 112.239 13.926C111.794 14.2633 111.457 14.7617 111.227 15.421C110.997 16.0803 110.882 16.893 110.882 17.859C110.882 19.3003 111.135 20.3967 111.641 21.148C112.162 21.8993 112.921 22.275 113.918 22.275C114.5 22.275 114.991 22.1983 115.39 22.045C115.804 21.8917 116.141 21.654 116.402 21.332C116.678 21.01 116.877 20.6037 117 20.113C117.138 19.607 117.207 19.0013 117.207 18.296V17.836C117.207 16.778 117.084 15.927 116.839 15.283C116.609 14.6237 116.248 14.1483 115.758 13.857C115.267 13.5503 114.638 13.397 113.872 13.397ZM125.788 11.189C125.788 11.5723 125.773 11.9557 125.742 12.339C125.712 12.7223 125.681 13.0367 125.65 13.282H125.811C126.072 12.8527 126.394 12.5 126.777 12.224C127.176 11.948 127.613 11.741 128.088 11.603C128.579 11.465 129.077 11.396 129.583 11.396C130.565 11.396 131.385 11.557 132.044 11.879C132.719 12.1857 133.225 12.6763 133.562 13.351C133.915 14.0103 134.091 14.869 134.091 15.927V24H131.676V16.272C131.676 15.306 131.469 14.5853 131.055 14.11C130.657 13.6193 130.013 13.374 129.123 13.374C128.28 13.374 127.613 13.5427 127.122 13.88C126.647 14.2173 126.302 14.7157 126.087 15.375C125.888 16.019 125.788 16.8163 125.788 17.767V24H123.35V6.52H125.788V11.189ZM142.3 22.252C142.622 22.252 142.951 22.2213 143.289 22.16C143.626 22.0987 143.917 22.0297 144.163 21.953V23.793C143.902 23.9157 143.549 24.0153 143.105 24.092C142.66 24.184 142.215 24.23 141.771 24.23C141.096 24.23 140.475 24.115 139.908 23.885C139.356 23.655 138.911 23.2563 138.574 22.689C138.236 22.1217 138.068 21.332 138.068 20.32V13.466H136.343V12.362L138.16 11.442L139.011 8.82H140.506V11.603H144.048V13.466H140.506V20.274C140.506 20.9487 140.667 21.447 140.989 21.769C141.326 22.091 141.763 22.252 142.3 22.252Z" fill="#026FEB"/>
<path d="M4.44449 16.3476L11.6326 27.0033C12.9305 28.9273 15.3818 29.7053 17.5517 28.8818L29.1842 24.4674C31.1261 23.7305 32.4102 21.8697 32.4102 19.7927V10.7878C32.4102 7.73721 29.702 5.39766 26.6838 5.84086L7.86313 8.60447C4.22012 9.13941 2.38535 13.2951 4.44449 16.3476Z" stroke="#026FEB" stroke-width="4" stroke-dasharray="9 9"/>
</svg>
