<svg width="17" height="17" viewBox="0 0 17 17" fill="none" xmlns="http://www.w3.org/2000/svg">
<path d="M11 16.5L5.5 14.575L1.2375 16.225C0.931944 16.3472 0.649306 16.3128 0.389583 16.1219C0.129861 15.9309 0 15.675 0 15.3542V2.52083C0 2.32222 0.0572917 2.14653 0.171875 1.99375C0.286458 1.84097 0.443056 1.72639 0.641667 1.65L5.5 0L11 1.925L15.2625 0.275C15.5681 0.152778 15.8507 0.187153 16.1104 0.378125C16.3701 0.569097 16.5 0.825 16.5 1.14583V13.9792C16.5 14.1778 16.4427 14.3535 16.3281 14.5063C16.2135 14.659 16.0569 14.7736 15.8583 14.85L11 16.5ZM10.0833 14.2542V3.52917L6.41667 2.24583V12.9708L10.0833 14.2542ZM11.9167 14.2542L14.6667 13.3375V2.475L11.9167 3.52917V14.2542ZM1.83333 14.025L4.58333 12.9708V2.24583L1.83333 3.1625V14.025Z" fill="#757575"/>
<path d="M11 16.5L5.5 14.575L1.2375 16.225C0.931944 16.3472 0.649306 16.3128 0.389583 16.1219C0.129861 15.9309 0 15.675 0 15.3542V2.52083C0 2.32222 0.0572917 2.14653 0.171875 1.99375C0.286458 1.84097 0.443056 1.72639 0.641667 1.65L5.5 0L11 1.925L15.2625 0.275C15.5681 0.152778 15.8507 0.187153 16.1104 0.378125C16.3701 0.569097 16.5 0.825 16.5 1.14583V13.9792C16.5 14.1778 16.4427 14.3535 16.3281 14.5063C16.2135 14.659 16.0569 14.7736 15.8583 14.85L11 16.5ZM10.0833 14.2542V3.52917L6.41667 2.24583V12.9708L10.0833 14.2542ZM11.9167 14.2542L14.6667 13.3375V2.475L11.9167 3.52917V14.2542ZM1.83333 14.025L4.58333 12.9708V2.24583L1.83333 3.1625V14.025Z" fill="black" fill-opacity="0.2"/>
</svg>
