<svg width="22" height="22" viewBox="0 0 22 22" fill="none" xmlns="http://www.w3.org/2000/svg">
<mask id="mask0_1260_5153" style="mask-type:alpha" maskUnits="userSpaceOnUse" x="0" y="0" width="22" height="22">
<rect width="22" height="22" fill="#D9D9D9"/>
</mask>
<g mask="url(#mask0_1260_5153)">
<path d="M12.6667 17L8.33333 15.4833L4.975 16.7833C4.73426 16.8796 4.51157 16.8525 4.30694 16.7021C4.10231 16.5516 4 16.35 4 16.0972V5.98611C4 5.82963 4.04514 5.6912 4.13542 5.57083C4.22569 5.45046 4.34907 5.36019 4.50556 5.3L8.33333 4L12.6667 5.51667L16.025 4.21667C16.2657 4.12037 16.4884 4.14745 16.6931 4.29792C16.8977 4.44838 17 4.65 17 4.90278V15.0139C17 15.1704 16.9549 15.3088 16.8646 15.4292C16.7743 15.5495 16.6509 15.6398 16.4944 15.7L12.6667 17ZM11.9444 15.2306V6.78056L9.05556 5.76944V14.2194L11.9444 15.2306ZM13.3889 15.2306L15.5556 14.5083V5.95L13.3889 6.78056V15.2306ZM5.44444 15.05L7.61111 14.2194V5.76944L5.44444 6.49167V15.05Z" fill="#757575"/>
<path d="M12.6667 17L8.33333 15.4833L4.975 16.7833C4.73426 16.8796 4.51157 16.8525 4.30694 16.7021C4.10231 16.5516 4 16.35 4 16.0972V5.98611C4 5.82963 4.04514 5.6912 4.13542 5.57083C4.22569 5.45046 4.34907 5.36019 4.50556 5.3L8.33333 4L12.6667 5.51667L16.025 4.21667C16.2657 4.12037 16.4884 4.14745 16.6931 4.29792C16.8977 4.44838 17 4.65 17 4.90278V15.0139C17 15.1704 16.9549 15.3088 16.8646 15.4292C16.7743 15.5495 16.6509 15.6398 16.4944 15.7L12.6667 17ZM11.9444 15.2306V6.78056L9.05556 5.76944V14.2194L11.9444 15.2306ZM13.3889 15.2306L15.5556 14.5083V5.95L13.3889 6.78056V15.2306ZM5.44444 15.05L7.61111 14.2194V5.76944L5.44444 6.49167V15.05Z" fill="black" fill-opacity="0.2"/>
</g>
</svg>
