<svg width="514" height="514" viewBox="0 0 514 514" fill="none" xmlns="http://www.w3.org/2000/svg">
<rect width="514" height="514" rx="12" fill="#F2F4F7"/>
<path d="M243.25 224.75L248.75 219.25" stroke="#98A2B3" stroke-width="1.5" stroke-linecap="round" stroke-linejoin="round"/>
<path d="M248.75 224.75L243.25 219.25" stroke="#98A2B3" stroke-width="1.5" stroke-linecap="round" stroke-linejoin="round"/>
<path d="M273.5 234.835L271.126 232.461C269.399 230.735 266.601 230.735 264.874 232.461V232.461L257 240.333" stroke="#98A2B3" stroke-width="1.5" stroke-linecap="round" stroke-linejoin="round"/>
<path d="M241.145 245.154L248.248 238.018C249.108 237.153 250.278 236.667 251.498 236.667C252.718 236.667 253.887 237.153 254.747 238.018L266.167 249.5" stroke="#98A2B3" stroke-width="1.5" stroke-linecap="round" stroke-linejoin="round"/>
<path d="M240.5 231.167V242.167C240.5 246.217 243.783 249.5 247.833 249.5H266.167C270.217 249.5 273.5 246.217 273.5 242.167V223.833C273.5 219.783 270.217 216.5 266.167 216.5H255.167" stroke="#98A2B3" stroke-width="1.5" stroke-linecap="round" stroke-linejoin="round"/>
<path d="M205.4 280.2H207.656V287.376H216.584V280.2H218.84V297H216.584V289.344H207.656V297H205.4V280.2ZM228.434 297.24C227.618 297.24 226.842 297.112 226.106 296.856C225.37 296.6 224.722 296.208 224.162 295.68C223.602 295.136 223.154 294.456 222.818 293.64C222.482 292.824 222.314 291.864 222.314 290.76V290.28C222.314 289.224 222.474 288.312 222.794 287.544C223.114 286.76 223.538 286.112 224.066 285.6C224.61 285.072 225.234 284.68 225.938 284.424C226.658 284.168 227.41 284.04 228.194 284.04C230.066 284.04 231.514 284.552 232.538 285.576C233.562 286.6 234.074 288.048 234.074 289.92V291.264H224.426C224.426 292.016 224.546 292.648 224.786 293.16C225.026 293.672 225.338 294.088 225.722 294.408C226.106 294.728 226.53 294.96 226.994 295.104C227.474 295.248 227.954 295.32 228.434 295.32C229.394 295.32 230.13 295.16 230.642 294.84C231.17 294.52 231.546 294.08 231.77 293.52H233.834C233.706 294.128 233.474 294.664 233.138 295.128C232.818 295.592 232.418 295.984 231.938 296.304C231.474 296.608 230.938 296.84 230.33 297C229.738 297.16 229.106 297.24 228.434 297.24ZM228.314 285.96C227.818 285.96 227.338 286.032 226.874 286.176C226.41 286.304 225.994 286.52 225.626 286.824C225.274 287.112 224.986 287.48 224.762 287.928C224.538 288.376 224.426 288.912 224.426 289.536H232.082C232.066 288.88 231.954 288.328 231.746 287.88C231.554 287.416 231.29 287.048 230.954 286.776C230.618 286.488 230.218 286.28 229.754 286.152C229.306 286.024 228.826 285.96 228.314 285.96ZM239.746 286.152H235.402V284.28H246.202V286.152H241.858V297H239.746V286.152ZM260.512 297.24C258.304 297.24 256.624 296.68 255.472 295.56C254.336 294.44 253.768 292.848 253.768 290.784V290.304C253.768 288.336 254.336 286.8 255.472 285.696C256.624 284.592 258.304 284.04 260.512 284.04V280.2H262.624V284.04C264.832 284.04 266.504 284.592 267.64 285.696C268.792 286.8 269.368 288.336 269.368 290.304V290.784C269.368 292.848 268.792 294.44 267.64 295.56C266.504 296.68 264.832 297.24 262.624 297.24V301.8H260.512V297.24ZM267.208 290.304C267.208 288.848 266.832 287.76 266.08 287.04C265.344 286.32 264.184 285.96 262.6 285.96V295.32C264.184 295.32 265.344 294.952 266.08 294.216C266.832 293.48 267.208 292.336 267.208 290.784V290.304ZM255.928 290.784C255.928 292.336 256.296 293.48 257.032 294.216C257.784 294.952 258.952 295.32 260.536 295.32V285.96C258.952 285.96 257.784 286.32 257.032 287.04C256.296 287.76 255.928 288.848 255.928 290.304V290.784ZM277.653 297.24C276.837 297.24 276.061 297.112 275.325 296.856C274.589 296.584 273.941 296.184 273.381 295.656C272.821 295.112 272.373 294.432 272.037 293.616C271.701 292.8 271.533 291.848 271.533 290.76V290.28C271.533 289.256 271.701 288.352 272.037 287.568C272.373 286.784 272.821 286.136 273.381 285.624C273.941 285.096 274.589 284.704 275.325 284.448C276.061 284.176 276.837 284.04 277.653 284.04C278.469 284.04 279.245 284.176 279.981 284.448C280.717 284.704 281.365 285.096 281.925 285.624C282.485 286.136 282.933 286.784 283.269 287.568C283.605 288.352 283.773 289.256 283.773 290.28V290.76C283.773 291.848 283.605 292.8 283.269 293.616C282.933 294.432 282.485 295.112 281.925 295.656C281.365 296.184 280.717 296.584 279.981 296.856C279.245 297.112 278.469 297.24 277.653 297.24ZM277.653 295.32C278.133 295.32 278.613 295.24 279.093 295.08C279.573 294.904 279.997 294.64 280.365 294.288C280.733 293.92 281.029 293.448 281.253 292.872C281.493 292.296 281.613 291.592 281.613 290.76V290.28C281.613 289.512 281.493 288.856 281.253 288.312C281.029 287.768 280.733 287.32 280.365 286.968C279.997 286.616 279.573 286.36 279.093 286.2C278.613 286.04 278.133 285.96 277.653 285.96C277.173 285.96 276.693 286.04 276.213 286.2C275.733 286.36 275.309 286.616 274.941 286.968C274.573 287.32 274.269 287.768 274.029 288.312C273.805 288.856 273.693 289.512 273.693 290.28V290.76C273.693 291.592 273.805 292.296 274.029 292.872C274.269 293.448 274.573 293.92 274.941 294.288C275.309 294.64 275.733 294.904 276.213 295.08C276.693 295.24 277.173 295.32 277.653 295.32ZM289.433 286.152H285.089V284.28H295.889V286.152H291.545V297H289.433V286.152ZM303.341 297.24C302.525 297.24 301.749 297.112 301.013 296.856C300.277 296.584 299.629 296.184 299.069 295.656C298.509 295.112 298.061 294.432 297.725 293.616C297.389 292.8 297.221 291.848 297.221 290.76V290.28C297.221 289.256 297.389 288.352 297.725 287.568C298.061 286.784 298.509 286.136 299.069 285.624C299.629 285.096 300.277 284.704 301.013 284.448C301.749 284.176 302.525 284.04 303.341 284.04C304.157 284.04 304.933 284.176 305.669 284.448C306.405 284.704 307.053 285.096 307.613 285.624C308.173 286.136 308.621 286.784 308.957 287.568C309.293 288.352 309.461 289.256 309.461 290.28V290.76C309.461 291.848 309.293 292.8 308.957 293.616C308.621 294.432 308.173 295.112 307.613 295.656C307.053 296.184 306.405 296.584 305.669 296.856C304.933 297.112 304.157 297.24 303.341 297.24ZM303.341 295.32C303.821 295.32 304.301 295.24 304.781 295.08C305.261 294.904 305.685 294.64 306.053 294.288C306.421 293.92 306.717 293.448 306.941 292.872C307.181 292.296 307.301 291.592 307.301 290.76V290.28C307.301 289.512 307.181 288.856 306.941 288.312C306.717 287.768 306.421 287.32 306.053 286.968C305.685 286.616 305.261 286.36 304.781 286.2C304.301 286.04 303.821 285.96 303.341 285.96C302.861 285.96 302.381 286.04 301.901 286.2C301.421 286.36 300.997 286.616 300.629 286.968C300.261 287.32 299.957 287.768 299.717 288.312C299.493 288.856 299.381 289.512 299.381 290.28V290.76C299.381 291.592 299.493 292.296 299.717 292.872C299.957 293.448 300.261 293.92 300.629 294.288C300.997 294.64 301.421 294.904 301.901 295.08C302.381 295.24 302.861 295.32 303.341 295.32Z" fill="#98A2B3"/>
</svg>
