<svg width="20" height="21" viewBox="0 0 20 21" fill="none" xmlns="http://www.w3.org/2000/svg">
<mask id="mask0_1087_5135" style="mask-type:alpha" maskUnits="userSpaceOnUse" x="0" y="0" width="20" height="21">
<rect x="0.529297" y="0.882202" width="19.2789" height="19.2789" fill="#D9D9D9"/>
</mask>
<g mask="url(#mask0_1087_5135)">
<path d="M10.1696 14.94C11.1737 14.94 12.0272 14.5886 12.7301 13.8857C13.4329 13.1828 13.7844 12.3294 13.7844 11.3252C13.7844 10.3211 13.4329 9.46764 12.7301 8.76476C12.0272 8.06188 11.1737 7.71045 10.1696 7.71045C9.16548 7.71045 8.31199 8.06188 7.60911 8.76476C6.90624 9.46764 6.5548 10.3211 6.5548 11.3252C6.5548 12.3294 6.90624 13.1828 7.60911 13.8857C8.31199 14.5886 9.16548 14.94 10.1696 14.94ZM10.1696 13.3335C9.60729 13.3335 9.13201 13.1393 8.74376 12.7511C8.3555 12.3628 8.16138 11.8875 8.16138 11.3252C8.16138 10.7629 8.3555 10.2877 8.74376 9.89941C9.13201 9.51115 9.60729 9.31702 10.1696 9.31702C10.7319 9.31702 11.2072 9.51115 11.5954 9.89941C11.9837 10.2877 12.1778 10.7629 12.1778 11.3252C12.1778 11.8875 11.9837 12.3628 11.5954 12.7511C11.2072 13.1393 10.7319 13.3335 10.1696 13.3335ZM3.74329 17.7516C3.30149 17.7516 2.92327 17.5942 2.60865 17.2796C2.29403 16.965 2.13672 16.5868 2.13672 16.145V6.50551C2.13672 6.0637 2.29403 5.68549 2.60865 5.37087C2.92327 5.05625 3.30149 4.89894 3.74329 4.89894H6.27365L7.75973 3.29236H12.5795L14.0655 4.89894H16.5959C17.0377 4.89894 17.4159 5.05625 17.7305 5.37087C18.0452 5.68549 18.2025 6.0637 18.2025 6.50551V16.145C18.2025 16.5868 18.0452 16.965 17.7305 17.2796C17.4159 17.5942 17.0377 17.7516 16.5959 17.7516H3.74329ZM3.74329 16.145H16.5959V6.50551H13.3426L11.8766 4.89894H8.46261L6.99661 6.50551H3.74329V16.145Z" fill="white"/>
</g>
</svg>
