<svg width="13" height="12" viewBox="0 0 13 12" fill="none" xmlns="http://www.w3.org/2000/svg">
<path fill-rule="evenodd" clip-rule="evenodd" d="M5.1864 5.69814e-08C4.45539 0.000172282 3.73455 0.171311 3.08148 0.499742C2.4284 0.828173 1.86119 1.30479 1.42516 1.89152C0.989136 2.47825 0.696375 3.15883 0.570272 3.87888C0.44417 4.59893 0.48822 5.33849 0.698904 6.03848C0.909588 6.73847 1.28107 7.37949 1.78366 7.91031C2.28625 8.44114 2.90603 8.84706 3.59347 9.09564C4.28091 9.34423 5.01697 9.42859 5.74283 9.34199C6.46869 9.25539 7.16424 9.00022 7.7739 8.59688L10.2401 11.5094C10.3563 11.6254 10.4941 11.7175 10.6459 11.7803C10.7976 11.843 10.9602 11.8753 11.1243 11.8753C11.2885 11.8752 11.4511 11.8428 11.6028 11.7799C11.7544 11.717 11.8922 11.6249 12.0083 11.5087C12.1243 11.3926 12.2164 11.2548 12.2791 11.103C12.3419 10.9513 12.3742 10.7887 12.3741 10.6246C12.3741 10.4604 12.3417 10.2978 12.2788 10.1461C12.2159 9.99448 12.1238 9.85668 12.0076 9.74062L9.09577 7.275C9.56343 6.56856 9.83089 5.74858 9.86971 4.90227C9.90852 4.05595 9.71724 3.21493 9.31621 2.46865C8.91518 1.72237 8.31939 1.09872 7.5922 0.664035C6.86501 0.229347 6.0336 -0.000132021 5.1864 5.69814e-08ZM1.7489 4.6875C1.7489 3.77582 2.11106 2.90148 2.75572 2.25682C3.40037 1.61216 4.27471 1.25 5.1864 1.25C6.09808 1.25 6.97242 1.61216 7.61708 2.25682C8.26173 2.90148 8.6239 3.77582 8.6239 4.6875C8.6239 5.59918 8.26173 6.47352 7.61708 7.11818C6.97242 7.76284 6.09808 8.125 5.1864 8.125C4.27471 8.125 3.40037 7.76284 2.75572 7.11818C2.11106 6.47352 1.7489 5.59918 1.7489 4.6875Z" fill="#757575"/>
<path fill-rule="evenodd" clip-rule="evenodd" d="M5.1864 5.69814e-08C4.45539 0.000172282 3.73455 0.171311 3.08148 0.499742C2.4284 0.828173 1.86119 1.30479 1.42516 1.89152C0.989136 2.47825 0.696375 3.15883 0.570272 3.87888C0.44417 4.59893 0.48822 5.33849 0.698904 6.03848C0.909588 6.73847 1.28107 7.37949 1.78366 7.91031C2.28625 8.44114 2.90603 8.84706 3.59347 9.09564C4.28091 9.34423 5.01697 9.42859 5.74283 9.34199C6.46869 9.25539 7.16424 9.00022 7.7739 8.59688L10.2401 11.5094C10.3563 11.6254 10.4941 11.7175 10.6459 11.7803C10.7976 11.843 10.9602 11.8753 11.1243 11.8753C11.2885 11.8752 11.4511 11.8428 11.6028 11.7799C11.7544 11.717 11.8922 11.6249 12.0083 11.5087C12.1243 11.3926 12.2164 11.2548 12.2791 11.103C12.3419 10.9513 12.3742 10.7887 12.3741 10.6246C12.3741 10.4604 12.3417 10.2978 12.2788 10.1461C12.2159 9.99448 12.1238 9.85668 12.0076 9.74062L9.09577 7.275C9.56343 6.56856 9.83089 5.74858 9.86971 4.90227C9.90852 4.05595 9.71724 3.21493 9.31621 2.46865C8.91518 1.72237 8.31939 1.09872 7.5922 0.664035C6.86501 0.229347 6.0336 -0.000132021 5.1864 5.69814e-08ZM1.7489 4.6875C1.7489 3.77582 2.11106 2.90148 2.75572 2.25682C3.40037 1.61216 4.27471 1.25 5.1864 1.25C6.09808 1.25 6.97242 1.61216 7.61708 2.25682C8.26173 2.90148 8.6239 3.77582 8.6239 4.6875C8.6239 5.59918 8.26173 6.47352 7.61708 7.11818C6.97242 7.76284 6.09808 8.125 5.1864 8.125C4.27471 8.125 3.40037 7.76284 2.75572 7.11818C2.11106 6.47352 1.7489 5.59918 1.7489 4.6875Z" fill="black" fill-opacity="0.2"/>
</svg>
