<svg width="25" height="24" viewBox="0 0 25 24" fill="none" xmlns="http://www.w3.org/2000/svg">
<g id="thumbs-down">
<path id="Icon" d="M17.5001 2V13M22.5001 9.8V5.2C22.5001 4.07989 22.5001 3.51984 22.2821 3.09202C22.0903 2.71569 21.7844 2.40973 21.408 2.21799C20.9802 2 20.4202 2 19.3001 2H8.61806C7.15658 2 6.42584 2 5.83563 2.26743C5.31545 2.50314 4.87335 2.88242 4.56129 3.36072C4.20722 3.90339 4.09611 4.62564 3.87388 6.07012L3.3508 9.47012C3.0577 11.3753 2.91114 12.3279 3.19386 13.0691C3.44199 13.7197 3.9087 14.2637 4.51398 14.6079C5.20358 15 6.16739 15 8.09499 15H8.90005C9.46011 15 9.74013 15 9.95404 15.109C10.1422 15.2049 10.2952 15.3578 10.3911 15.546C10.5001 15.7599 10.5001 16.0399 10.5001 16.6V19.5342C10.5001 20.896 11.604 22 12.9659 22C13.2907 22 13.5851 21.8087 13.717 21.5119L17.0778 13.9502C17.2306 13.6062 17.307 13.4343 17.4278 13.3082C17.5346 13.1967 17.6658 13.1115 17.811 13.0592C17.9753 13 18.1635 13 18.5398 13H19.3001C20.4202 13 20.9802 13 21.408 12.782C21.7844 12.5903 22.0903 12.2843 22.2821 11.908C22.5001 11.4802 22.5001 10.9201 22.5001 9.8Z" stroke="white" stroke-width="1.5" stroke-linecap="round" stroke-linejoin="round"/>
</g>
</svg>
