<svg width="24" height="24" viewBox="0 0 24 24" fill="none" xmlns="http://www.w3.org/2000/svg">
<mask id="mask0_1333_3714" style="mask-type:alpha" maskUnits="userSpaceOnUse" x="0" y="0" width="24" height="24">
<rect width="24" height="24" fill="#D9D9D9"/>
</mask>
<g mask="url(#mask0_1333_3714)">
<path d="M7.4375 18.1875V16.5625H13.2063C14.0594 16.5625 14.8008 16.2917 15.4305 15.75C16.0602 15.2083 16.375 14.5312 16.375 13.7187C16.375 12.9062 16.0602 12.2292 15.4305 11.6875C14.8008 11.1458 14.0594 10.875 13.2063 10.875H8.0875L10.2 12.9875L9.0625 14.125L5 10.0625L9.0625 6L10.2 7.1375L8.0875 9.25H13.2063C14.5198 9.25 15.6471 9.67656 16.5883 10.5297C17.5294 11.3828 18 12.4458 18 13.7187C18 14.9917 17.5294 16.0547 16.5883 16.9078C15.6471 17.7609 14.5198 18.1875 13.2063 18.1875H7.4375Z" fill="#757575"/>
<path d="M7.4375 18.1875V16.5625H13.2063C14.0594 16.5625 14.8008 16.2917 15.4305 15.75C16.0602 15.2083 16.375 14.5312 16.375 13.7187C16.375 12.9062 16.0602 12.2292 15.4305 11.6875C14.8008 11.1458 14.0594 10.875 13.2063 10.875H8.0875L10.2 12.9875L9.0625 14.125L5 10.0625L9.0625 6L10.2 7.1375L8.0875 9.25H13.2063C14.5198 9.25 15.6471 9.67656 16.5883 10.5297C17.5294 11.3828 18 12.4458 18 13.7187C18 14.9917 17.5294 16.0547 16.5883 16.9078C15.6471 17.7609 14.5198 18.1875 13.2063 18.1875H7.4375Z" fill="black" fill-opacity="0.2"/>
</g>
</svg>
