<svg width="13" height="9" viewBox="0 0 13 9" fill="none" xmlns="http://www.w3.org/2000/svg">
<path d="M6.5 7.09091C7.23864 7.09091 7.86648 6.83239 8.38352 6.31534C8.90057 5.7983 9.15909 5.17045 9.15909 4.43182C9.15909 3.69318 8.90057 3.06534 8.38352 2.5483C7.86648 2.03125 7.23864 1.77273 6.5 1.77273C5.76136 1.77273 5.13352 2.03125 4.61648 2.5483C4.09943 3.06534 3.84091 3.69318 3.84091 4.43182C3.84091 5.17045 4.09943 5.7983 4.61648 6.31534C5.13352 6.83239 5.76136 7.09091 6.5 7.09091ZM6.5 6.02727C6.05682 6.02727 5.68011 5.87216 5.36989 5.56193C5.05966 5.2517 4.90455 4.875 4.90455 4.43182C4.90455 3.98864 5.05966 3.61193 5.36989 3.3017C5.68011 2.99148 6.05682 2.83636 6.5 2.83636C6.94318 2.83636 7.31989 2.99148 7.63011 3.3017C7.94034 3.61193 8.09546 3.98864 8.09546 4.43182C8.09546 4.875 7.94034 5.2517 7.63011 5.56193C7.31989 5.87216 6.94318 6.02727 6.5 6.02727ZM6.5 8.86364C5.06212 8.86364 3.75227 8.46231 2.57045 7.65966C1.38864 6.85701 0.531818 5.78106 0 4.43182C0.531818 3.08258 1.38864 2.00663 2.57045 1.20398C3.75227 0.401326 5.06212 0 6.5 0C7.93788 0 9.24773 0.401326 10.4295 1.20398C11.6114 2.00663 12.4682 3.08258 13 4.43182C12.4682 5.78106 11.6114 6.85701 10.4295 7.65966C9.24773 8.46231 7.93788 8.86364 6.5 8.86364ZM6.5 7.68182C7.61288 7.68182 8.63466 7.38883 9.56534 6.80284C10.496 6.21686 11.2076 5.42652 11.7 4.43182C11.2076 3.43712 10.496 2.64678 9.56534 2.0608C8.63466 1.47481 7.61288 1.18182 6.5 1.18182C5.38712 1.18182 4.36534 1.47481 3.43466 2.0608C2.50398 2.64678 1.79242 3.43712 1.3 4.43182C1.79242 5.42652 2.50398 6.21686 3.43466 6.80284C4.36534 7.38883 5.38712 7.68182 6.5 7.68182Z" fill="#757575"/>
<path d="M6.5 7.09091C7.23864 7.09091 7.86648 6.83239 8.38352 6.31534C8.90057 5.7983 9.15909 5.17045 9.15909 4.43182C9.15909 3.69318 8.90057 3.06534 8.38352 2.5483C7.86648 2.03125 7.23864 1.77273 6.5 1.77273C5.76136 1.77273 5.13352 2.03125 4.61648 2.5483C4.09943 3.06534 3.84091 3.69318 3.84091 4.43182C3.84091 5.17045 4.09943 5.7983 4.61648 6.31534C5.13352 6.83239 5.76136 7.09091 6.5 7.09091ZM6.5 6.02727C6.05682 6.02727 5.68011 5.87216 5.36989 5.56193C5.05966 5.2517 4.90455 4.875 4.90455 4.43182C4.90455 3.98864 5.05966 3.61193 5.36989 3.3017C5.68011 2.99148 6.05682 2.83636 6.5 2.83636C6.94318 2.83636 7.31989 2.99148 7.63011 3.3017C7.94034 3.61193 8.09546 3.98864 8.09546 4.43182C8.09546 4.875 7.94034 5.2517 7.63011 5.56193C7.31989 5.87216 6.94318 6.02727 6.5 6.02727ZM6.5 8.86364C5.06212 8.86364 3.75227 8.46231 2.57045 7.65966C1.38864 6.85701 0.531818 5.78106 0 4.43182C0.531818 3.08258 1.38864 2.00663 2.57045 1.20398C3.75227 0.401326 5.06212 0 6.5 0C7.93788 0 9.24773 0.401326 10.4295 1.20398C11.6114 2.00663 12.4682 3.08258 13 4.43182C12.4682 5.78106 11.6114 6.85701 10.4295 7.65966C9.24773 8.46231 7.93788 8.86364 6.5 8.86364ZM6.5 7.68182C7.61288 7.68182 8.63466 7.38883 9.56534 6.80284C10.496 6.21686 11.2076 5.42652 11.7 4.43182C11.2076 3.43712 10.496 2.64678 9.56534 2.0608C8.63466 1.47481 7.61288 1.18182 6.5 1.18182C5.38712 1.18182 4.36534 1.47481 3.43466 2.0608C2.50398 2.64678 1.79242 3.43712 1.3 4.43182C1.79242 5.42652 2.50398 6.21686 3.43466 6.80284C4.36534 7.38883 5.38712 7.68182 6.5 7.68182Z" fill="black" fill-opacity="0.2"/>
</svg>
